<?xml version="1.0" standalone="no"?>
<!DOCTYPE svg PUBLIC "-//W3C//DTD SVG 1.1//EN" "http://www.w3.org/Graphics/SVG/1.1/DTD/svg11.dtd" >
<!--
2013-9-30: Created.
-->
<svg>
<metadata>
Created by iconfont
</metadata>
<defs>

<font id="iconfont" horiz-adv-x="1024" >
  <font-face
    font-family="iconfont"
    font-weight="500"
    font-stretch="normal"
    units-per-em="1024"
    ascent="896"
    descent="-128"
  />
    <missing-glyph />
    
    <glyph glyph-name="shijian2" unicode="&#58882;" d="M555.885714 427.885714V661.942857H468.114286v-329.142857h329.142857V427.885714H555.885714zM512-128c-285.257143 0-512 226.742857-512 512s226.742857 512 512 512 512-226.742857 512-512-226.742857-512-512-512z"  horiz-adv-x="1024" />

    
    <glyph glyph-name="tab" unicode="&#58946;" d="M479.232 420.40888889l-101.94488889-254.86222222h47.33155556l25.48622222 65.536h112.86755556L584.81777778 165.54666667000004h47.33155555L530.20444445 420.40888889h-50.97244445z m-18.20444445-156.55822222l43.69066667 112.86755555 43.69066667-112.86755555h-87.38133334zM147.91111111 384h87.38133334v-218.45333333h43.69066666V384h91.02222222v36.40888889H147.91111111z m673.56444444-83.74044445c14.56355555 3.64088889 25.48622222 10.92266667 32.768 21.84533334 7.28177778 10.92266667 10.92266667 21.84533333 10.92266667 36.40888889 0 18.20444445-7.28177778 36.40888889-21.84533333 47.33155555-14.56355555 10.92266667-36.40888889 18.20444445-61.89511111 18.20444445H657.63555555v-254.86222223h123.79022223c29.12711111 0 50.97244445 3.64088889 65.536 14.56355556 18.20444445 10.92266667 29.12711111 32.768 29.12711111 58.25422222 0 18.20444445-3.64088889 32.768-14.56355556 40.04977778-7.28177778 7.28177778-21.84533333 14.56355555-40.04977778 18.20444444z m-120.14933333 87.38133334h69.17688889c18.20444445 0 32.768-3.64088889 40.04977778-7.28177778 7.28177778-3.64088889 10.92266667-14.56355555 10.92266666-25.48622222 0-14.56355555-3.64088889-21.84533333-10.92266666-29.12711111-7.28177778-7.28177778-21.84533333-7.28177778-40.04977778-7.28177778h-69.17688889v69.17688889z m112.86755556-182.04444444c-10.92266667-3.64088889-21.84533333-7.28177778-40.04977778-7.28177778h-72.81777778v80.09955555h72.81777778c18.20444445 0 32.768-3.64088889 43.69066667-10.92266667 7.28177778-7.28177778 14.56355555-18.20444445 14.56355555-32.768 0-10.92266667-7.28177778-21.84533333-18.20444444-29.1271111zM38.68444445 820.90666667h436.90666666c21.84533333 0 36.40888889 14.56355555 36.40888889 36.40888888s-18.20444445 36.40888889-36.40888889 36.4088889H38.68444445c-21.84533333 0-36.40888889-14.56355555-36.4088889-36.4088889s18.20444445-36.40888889 36.4088889-36.40888888zM948.90666667 748.08888889H75.09333333c-40.04977778 0-72.81777778-32.768-72.81777778-72.81777778v-728.17777778c0-40.04977778 32.768-72.81777778 72.81777778-72.81777778h873.81333334c40.04977778 0 72.81777778 32.768 72.81777778 72.81777778V675.27111111c0 40.04977778-32.768 72.81777778-72.81777778 72.81777778z m0-764.58666667c0-18.20444445-14.56355555-36.40888889-36.40888889-36.40888889H111.50222222c-21.84533333 0-36.40888889 18.20444445-36.40888889 36.40888889V638.8622222199999c0 18.20444445 14.56355555 36.40888889 36.40888889 36.40888889h800.99555556c21.84533333 0 36.40888889-18.20444445 36.40888889-36.40888889v-655.36z"  horiz-adv-x="1024" />

    
    <glyph glyph-name="kuai" unicode="&#58881;" d="M403.626667 768h-213.333334A59.733333 59.733333 0 0 1 128 708.266667v-213.333334a59.733333 59.733333 0 0 1 59.733333-59.733333h213.333334a59.733333 59.733333 0 0 1 59.733333 59.733333v213.333334A59.733333 59.733333 0 0 1 403.626667 768z m430.08 0h-213.333334a59.733333 59.733333 0 0 1-59.733333-59.733333v-213.333334a59.733333 59.733333 0 0 1 59.733333-59.733333h213.333334a59.733333 59.733333 0 0 1 59.733333 59.733333v213.333334a59.733333 59.733333 0 0 1-59.733333 59.733333z m0-430.08h-213.333334a59.733333 59.733333 0 0 1-59.733333-59.733333v-213.333334a59.733333 59.733333 0 0 1 59.733333-59.733333h213.333334a59.733333 59.733333 0 0 1 59.733333 59.733333v213.333334a59.733333 59.733333 0 0 1-59.733333 59.733333z m-430.08 0h-213.333334A59.733333 59.733333 0 0 1 128 278.18666700000006v-213.333334a59.733333 59.733333 0 0 1 59.733333-59.733333h213.333334a59.733333 59.733333 0 0 1 59.733333 59.733333v213.333334a59.733333 59.733333 0 0 1-59.733333 59.733333z m0 0"  horiz-adv-x="1024" />

    
    <glyph glyph-name="zu" unicode="&#59056;" d="M411.3152-55.808l218.496 218.5216 5.7088 5.7088a55.5264 55.5264 0 0 1 4.1728 4.736 239.7952 239.7952 0 0 1-9.8816 328.576 244.352 244.352 0 0 1-24.2688 21.1968l-55.04-71.0656a137.7024 137.7024 0 0 0 15.7184-13.7216 149.6832 149.6832 0 0 0 1.1008-210.5856l-217.856-217.8304c-1.2032-1.3312-2.56-2.56-3.84-3.968a149.76 149.76 0 1 0-211.8144 211.8144c1.6384 1.6384 3.3024 3.2 5.12 4.7104l105.472 105.472-63.616 63.5904-108.2112-108.2112-0.768-0.768-1.3056-1.3312a239.7184 239.7184 0 0 1 339.0208-339.0208 17.92 17.92 0 0 1 1.3312 1.4336 3.5328 3.5328 0 0 1 0.4608 0.7424zM477.6704 312.2176c-4.4032 3.6352-12.416 10.0096-19.9936 17.4592a149.8368 149.8368 0 0 0 0 211.8144c1.6384 1.6384 3.3024 3.1744 5.12 4.736l217.728 217.728a149.7088 149.7088 0 0 0 210.816-212.48l-109.2096-109.312 63.4624-63.5392 108.2112 108.2112 5.7088 5.7088a54.8096 54.8096 0 0 1 4.1728 4.736A239.7696 239.7696 0 0 1 625.2288 835.7376a33.8944 33.8944 0 0 1-4.736-4.1728l-224.3328-224.3328-0.768-0.768-1.3312-1.3056a239.744 239.744 0 0 1 0-339.0208 252.3392 252.3392 0 0 1 23.1936-20.48zM166.6304 355.3024a44.928 44.928 0 1 1 41.2672 48.3072 44.928 44.928 0 0 1-41.2672-48.3072zM534.0416 483.4048a44.928 44.928 0 1 1 41.2928 48.3072 44.928 44.928 0 0 1-41.2928-48.3072zM401.664 276.3008a44.928 44.928 0 1 1 41.2672 48.3072 44.928 44.928 0 0 1-41.2672-48.3072zM769.024 406.8096a44.928 44.928 0 1 1 41.2672 48.3072 44.928 44.928 0 0 1-41.2672-48.3072z"  horiz-adv-x="1024" />

    
    <glyph glyph-name="wailianmulu" unicode="&#59101;" d="M455.224889 724.593778c12.572444-33.223111 48.014222-56.092444 84.935111-57.571556H910.222222c31.004444 0 56.888889-26.567111 56.888889-57.628444v-515.470222a58.026667 58.026667 0 0 0-56.888889-57.628445H114.062222c-31.061333 0-56.888889 26.624-56.888889 57.628445V724.593778a58.026667 58.026667 0 0 0 56.888889 57.628444h284.330667m0-0.739555c27.306667-1.479111 49.493333-34.702222 56.888889-57.628445M568.888889 440.888889m34.133333 0l386.844445 0q34.133333 0 34.133333-34.133333l0-273.066667q0-34.133333-34.133333-34.133333l-386.844445 0q-34.133333 0-34.133333 34.133333l0 273.066667q0 34.133333 34.133333 34.133333ZM840.078222 269.937778l-95.004444-79.189334a61.952 61.952 0 1 0-23.779556 28.558223l95.004445 79.189333a61.952 61.952 0 1 0 23.779555-28.558222z"  horiz-adv-x="1024" />

    
    <glyph glyph-name="tupian2" unicode="&#58991;" d="M0 896m88.932091 0l978.253005 0q88.932091 0 88.932091-88.932091l0-800.388822q0-88.932091-88.932091-88.932092l-978.253005 0q-88.932091 0-88.932091 88.932092l0 800.388822q0 88.932091 88.932091 88.932091ZM216.744042 251.205097a22.344747 22.344747 0 0 1-34.559875 1.117237L0 38.110697v-31.43161a89.378986 89.378986 0 0 1 88.932091-88.932092h377.99863zM893.71538 507.946235a41.412264 41.412264 0 0 1-64.6508 2.011027l-503.352658-592.210267h741.473174a89.378986 89.378986 0 0 1 88.932091 88.932092V158.176469z"  horiz-adv-x="1210" />

    
    <glyph glyph-name="biaoge1" unicode="&#58978;" d="M1101.522824 883.169882H103.183059C57.404235 883.169882 19.998118 845.763765 19.998118 799.924706v-831.969882c0-45.778824 37.345882-83.245176 83.184941-83.245177h998.339765c45.778824 0 83.184941 37.406118 83.184941 83.245177V799.924706c0 45.778824-37.345882 83.245176-83.184941 83.245176z m1.927529-926.358588H94.810353V630.241882H1103.510588v-673.430588h-0.12047zM730.834824 93.726118v-88.666353H473.871059v88.666353h256.963765z m315.51247 0v-88.666353h-257.14447v88.666353h257.204705z m-315.51247 162.635294v-88.726588H473.871059v88.786823h256.963765z m315.51247 0v-88.726588h-257.14447v88.786823h257.204705z m-315.51247 162.635294v-88.726588H473.871059V418.936471h256.963765z m315.51247 0v-88.726588h-257.14447V418.936471h257.204705z m-315.51247 162.514823v-88.666353H473.871059V581.511529h256.963765z m315.51247 0v-88.666353h-257.14447V581.511529h257.204705zM415.503059 93.726118v-88.666353h-257.204706v88.666353h257.204706z m0 487.785411v-88.666353h-257.204706V581.511529h257.204706zM415.503059 418.936471v-88.666353h-257.204706V418.936471zM415.503059 256.421647v-88.786823h-257.204706v88.786823z"  horiz-adv-x="1204" />

    
    <glyph glyph-name="lunbotu" unicode="&#58943;" d="M1102.769231 896H78.769231C35.446154 896 0 860.553846 0 817.230769v-708.923077c0-43.323077 35.446154-78.769231 78.769231-78.76923h1024c43.323077 0 78.769231 35.446154 78.769231 78.76923V817.230769c0 43.323077-35.446154 78.769231-78.769231 78.769231zM974.454154 747.913846c37.927385 0 68.371692-30.601846 68.371692-68.726154a68.292923 68.292923 0 0 0-116.814769-48.758154 68.608 68.608 0 0 0-19.928615 48.679385c0 37.415385 30.365538 68.686769 68.371692 68.686769V747.913846z m64.551384-593.762461H136.625231a51.042462 51.042462 0 0 0-46.355693 29.380923 51.515077 51.515077 0 0 0 6.813539 54.587077L346.190769 542.759385a50.727385 50.727385 0 0 0 72.192 6.813538l6.852923-6.813538 221.77477-270.966154a50.688 50.688 0 0 1 72.192-6.931693l6.852923 6.892308 123.076923 150.252308a50.727385 50.727385 0 0 0 72.192 6.971077l6.852923-6.892308 150.291692-183.926154c12.721231-15.36 15.438769-36.706462 6.971077-54.744615a50.963692 50.963692 0 0 0-46.552615-29.262769h0.118153zM315.076923-49.230769m29.538462 0l59.076923 0q29.538462 0 29.538461-29.538462l0 0q0-29.538462-29.538461-29.538461l-59.076923 0q-29.538462 0-29.538462 29.538461l0 0q0 29.538462 29.538462 29.538462ZM551.384615-49.230769m29.538462 0l59.076923 0q29.538462 0 29.538462-29.538462l0 0q0-29.538462-29.538462-29.538461l-59.076923 0q-29.538462 0-29.538462 29.538461l0 0q0 29.538462 29.538462 29.538462ZM740.430769-49.230769m29.538462 0l59.076923 0q29.538462 0 29.538461-29.538462l0 0q0-29.538462-29.538461-29.538461l-59.076923 0q-29.538462 0-29.538462 29.538461l0 0q0 29.538462 29.538462 29.538462Z"  horiz-adv-x="1181" />

    
    <glyph glyph-name="jindutiao" unicode="&#58884;" d="M1024 896v-256H0V896zM384 128v-256H0v256zM768 512v-256H0V512z"  horiz-adv-x="1024" />

    
    <glyph glyph-name="paomadengicon" unicode="&#59014;" d="M282.624 39.882105v673.684211c0 50.176 43.708632 91.028211 97.441684 91.02821h958.895158c53.733053 0 97.441684-40.852211 97.441684-91.082105v-673.630316c0-50.176-43.708632-91.082105-97.441684-91.082105H380.065684c-53.733053 0-97.441684 40.852211-97.441684 91.082105zM1170.755368 369.879579c0-24.306526-19.941053-44.032-44.517052-44.032h-71.033263a44.301474 44.301474 0 0 0-44.570948 44.032c0 24.306526 19.941053 44.032 44.570948 44.032h71.033263c24.576 0 44.517053-19.725474 44.517052-44.032zM1253.753263 578.829474c0-24.252632-19.887158-43.870316-44.409263-43.870316H487.801263a44.139789 44.139789 0 0 0-44.409263 43.870316c0 24.252632 19.887158 43.870316 44.409263 43.870315h721.542737c24.522105 0 44.409263-19.671579 44.409263-43.870315zM963.045053 369.879579c0-24.252632-19.887158-43.816421-44.355369-43.816421H487.747368a44.139789 44.139789 0 0 0-44.409263 43.816421c0 24.252632 19.887158 43.870316 44.409263 43.870316h430.888421c24.522105 0 44.355368-19.671579 44.355369-43.870316zM1209.397895 145.515789h-430.942316a44.139789 44.139789 0 0 0-44.355368 43.870316c0 24.252632 19.887158 43.870316 44.355368 43.870316h430.888421c24.522105 0 44.409263-19.671579 44.409263-43.870316 0-24.252632-19.887158-43.870316-44.409263-43.870316zM46.403368 193.697684h466.405053v-234.873263H46.403368z"  horiz-adv-x="1509" />

    
    <glyph glyph-name="fanpaiqi" unicode="&#59354;" d="M0 896m94.209952 0l376.839808 0q94.209952 0 94.209952-94.209952l0-706.57464q0-94.209952-94.209952-94.209952l-376.839808 0q-94.209952 0-94.209952 94.209952l0 706.57464q0 94.209952 94.209952 94.209952ZM706.57464 896m94.209952 0l376.839808 0q94.209952 0 94.209952-94.209952l0-706.57464q0-94.209952-94.209952-94.209952l-376.839808 0q-94.209952 0-94.209952 94.209952l0 706.57464q0 94.209952 94.209952 94.209952ZM362.896735 236.530336H282.629856V493.158245H183.144147V553.641034c13.943073-0.37684 27.415096 0.65947 40.416069 3.108929 13.000973 2.449459 24.683007 6.783117 35.046102 13.000973 10.363095 6.217857 19.12462 14.414123 26.284577 24.588798 7.159956 10.174675 11.870454 22.798808 14.131493 37.8724h63.874347V236.530336zM945.114239 524.812789c0-16.957791 6.029437-29.864555 18.088311-38.72029 12.058874-8.855735 26.190367-13.283603 42.394478-13.283604 16.957791 0 31.089284 4.427868 42.394478 13.283604 11.305194 8.855735 16.957791 21.762499 16.957792 38.72029 0 5.275757-0.75368 11.022564-2.261039 17.240421a47.576026 47.576026 0 0 1-26.849836 31.937174c-7.725216 3.768398-17.805681 5.652597-30.241395 5.652597-7.913636 0-15.544642-1.224729-22.893018-3.674188a62.602513 62.602513 0 0 1-19.50146-10.457305c-5.652597-4.522078-10.080465-10.174675-13.283604-16.957791a55.065717 55.065717 0 0 1-4.804707-23.740908z m-72.918503 7.348376c0 17.711471 3.956818 33.350323 11.870454 46.916556 7.913636 13.566233 18.182521 24.871427 30.806654 33.915583 12.624134 9.044155 26.849836 15.827272 42.677108 20.34935a174.099991 174.099991 0 0 0 48.047076 6.783116c24.494588 0 45.220777-3.768398 62.178568-11.305194 16.957791-7.536796 30.618234-16.675162 40.981329-27.415096 10.363095-10.739935 17.805681-22.233549 22.327759-34.480842 4.522078-12.247294 6.783117-23.269858 6.783117-33.067694 0-19.59567-4.804708-36.741881-14.414123-51.438633-9.609415-14.696753-24.023538-25.248267-43.242368-31.654544v-1.13052c23.740908-5.275757 42.017639-16.486742 54.830192-33.632953 12.812553-17.146211 19.21883-38.155031 19.21883-63.026458 0-21.103029-4.239448-39.37976-12.718343-54.830192-8.478896-15.450432-19.68988-28.262986-33.632953-38.43766a150.029349 150.029349 0 0 0-47.481816-22.893018c-17.711471-5.087337-35.799782-7.631006-54.264932-7.631006-19.21883 0-37.778191 2.355249-55.678082 7.065746-17.899891 4.710498-33.915583 12.153084-48.047076 22.327759-14.131493 10.174675-25.436687 22.987228-33.915582 38.43766-8.478896 15.450432-12.718344 33.915583-12.718344 55.395452 0 25.248267 6.500487 46.351296 19.50146 63.309088 13.000973 16.957791 31.371914 28.262986 55.112822 33.915582v1.13052c-19.21883 5.275757-33.727163 15.262012-43.524998 29.958764a90.535764 90.535764 0 0 0-14.696752 51.438634z m63.874347-175.79577a66.182491 66.182491 0 0 1 20.63198-48.894965c6.217857-5.841017 13.660443-10.363095 22.327758-13.566233 8.667316-3.203138 17.711471-4.804708 27.132467-4.804708 9.797835 0 18.74778 1.601569 26.849836 4.804708 8.102056 3.203138 15.262012 7.725216 21.479869 13.566233 6.217857 5.841017 11.022564 12.906763 14.414123 21.197239 3.391558 8.290476 5.087337 17.334631 5.087337 27.132466a60.435684 60.435684 0 0 1-20.06672 45.786037 65.617232 65.617232 0 0 1-21.479869 13.000973 74.802702 74.802702 0 0 1-26.284576 4.522078c-19.59567 0-36.176622-5.369967-49.742855-16.109902-13.566233-10.739935-20.34935-26.284577-20.34935-46.633926z"  horiz-adv-x="1455" />

    
    <glyph glyph-name="tupian-kuang" unicode="&#58989;" d="M413.184 400.896c-7.936 5.376-19.2 2.816-24.32-5.12L247.04 176.64c-2.56-3.072-3.84-7.168-3.84-11.008 0-9.728 7.936-17.92 17.664-17.92h503.808v0.256c3.328 0 6.4 0.768 9.728 2.816 7.936 5.12 10.496 16.128 5.12 23.808l-196.608 304.64c-1.536 1.792-3.328 3.84-5.376 5.12-7.936 5.12-19.2 3.072-24.32-5.12l-94.208-145.92-40.192 61.696c-1.536 3.072-3.328 4.608-5.632 5.888z m60.16-109.056l94.208 145.92 164.352-254.464H293.376l110.08 170.496 40.192-61.696c7.936-11.008 22.016-11.008 29.696-0.256z m-183.808 254.976c0-39.424 32.256-71.168 71.68-71.168 38.912 0 71.168 31.744 71.168 71.168 0 39.168-32.256 71.168-71.168 71.168-39.424 0-71.68-31.744-71.68-71.168z m107.52 0c0-20.224-16.384-35.84-36.096-35.84-19.712 0-36.352 16.128-36.352 35.84s16.64 36.096 36.352 36.096c19.968 0 36.096-16.384 36.096-36.096z m470.016-311.552c-16.128 0-29.44-13.312-29.44-29.44v-147.712h-147.456c-16.384 0-29.696-13.312-29.696-29.44s13.312-29.696 29.696-29.696h176.896c16.128 0 29.44 13.568 29.44 29.696v177.408c0 16.128-13.056 29.184-29.44 29.184z m-531.456-176.896H187.904v147.712c0 16.128-13.312 29.44-29.44 29.44-16.384 0-29.44-13.312-29.44-29.44v-177.152c0-16.128 13.312-29.696 29.44-29.696h177.152c16.384 0 29.44 13.568 29.44 29.696s-13.056 29.44-29.44 29.44zM158.464 530.944c16.128 0 29.44 13.312 29.44 29.44V707.5840000000001h147.712c16.384 0 29.44 13.312 29.44 29.696 0 16.384-13.312 29.44-29.44 29.44H158.464c-16.384 0-29.44-13.312-29.44-29.44v-177.152c0-16.128 13.056-29.184 29.44-29.184z m708.608 236.032h-177.152c-16.384 0-29.696-13.312-29.696-29.44 0-16.384 13.312-29.696 29.696-29.696h147.456v-147.456c0-16.384 13.312-29.44 29.44-29.44s29.44 13.312 29.44 29.44V737.28c0.256 16.64-12.8 29.696-29.184 29.696z"  horiz-adv-x="1024" />

    
    <glyph glyph-name="wenbenkuang" unicode="&#58896;" d="M95.573333 414.72c0-6.826667 6.826667-13.653333 13.653334-13.653333s13.653333 6.826667 13.653333 13.653333v27.306667c0 6.826667-6.826667 13.653333-13.653333 13.653333s-13.653333-6.826667-13.653334-13.653333v-27.306667z m0 92.16c0-6.826667 6.826667-13.653333 13.653334-13.653333s13.653333 6.826667 13.653333 13.653333v27.306667c0 6.826667-6.826667 13.653333-13.653333 13.653333s-13.653333-6.826667-13.653334-13.653333v-27.306667z m0-180.906667c0-6.826667 6.826667-13.653333 13.653334-13.653333s13.653333 6.826667 13.653333 13.653333v27.306667c0 6.826667-6.826667 13.653333-13.653333 13.653333s-13.653333-6.826667-13.653334-13.653333v-27.306667z m17.066667 259.413334c6.826667 0 13.653333 6.826667 13.653333 13.653333v30.72c0 6.826667-6.826667 13.653333-13.653333 13.653333-10.24-3.413333-17.066667-6.826667-17.066667-17.066666v-27.306667c0-6.826667 6.826667-13.653333 17.066667-13.653333-3.413333 0-3.413333 0 0 0z m-17.066667-351.573334c0-6.826667 6.826667-13.653333 13.653334-13.653333s13.653333 6.826667 13.653333 13.653333v27.306667c0 6.826667-6.826667 13.653333-13.653333 13.653333s-13.653333-6.826667-13.653334-13.653333v-27.306667z m0-92.16c0-6.826667 6.826667-13.653333 13.653334-13.653333s13.653333 6.826667 13.653333 13.653333v27.306667c0 6.826667-6.826667 13.653333-13.653333 13.653333s-13.653333-6.826667-13.653334-13.653333v-27.306667z m802.133334 273.066667c0-6.826667 6.826667-13.653333 13.653333-13.653333s13.653333 6.826667 13.653333 13.653333v27.306667c0 6.826667-6.826667 13.653333-13.653333 13.653333s-13.653333-6.826667-13.653333-13.653333v-27.306667z m0 92.16c0-6.826667 6.826667-13.653333 13.653333-13.653333s13.653333 6.826667 13.653333 13.653333v27.306667c0 6.826667-6.826667 13.653333-13.653333 13.653333s-13.653333-6.826667-13.653333-13.653333v-27.306667z m0-180.906667c0-6.826667 6.826667-13.653333 13.653333-13.653333s13.653333 6.826667 13.653333 13.653333v27.306667c0 6.826667-6.826667 13.653333-13.653333 13.653333s-13.653333-6.826667-13.653333-13.653333v-27.306667z m13.653333 259.413334c6.826667 0 13.653333 6.826667 13.653333 13.653333v30.72c0 6.826667-6.826667 13.653333-13.653333 13.653333s-13.653333-6.826667-13.653333-13.653333v-27.306667c0-10.24 6.826667-17.066667 13.653333-17.066666z m-13.653333-351.573334c0-6.826667 6.826667-13.653333 13.653333-13.653333s13.653333 6.826667 13.653333 13.653333v27.306667c0 6.826667-6.826667 13.653333-13.653333 13.653333s-13.653333-6.826667-13.653333-13.653333v-27.306667z m0-92.16c0-6.826667 6.826667-13.653333 13.653333-13.653333s13.653333 6.826667 13.653333 13.653333v27.306667c0 6.826667-6.826667 13.653333-13.653333 13.653333s-13.653333-6.826667-13.653333-13.653333v-27.306667z m-416.426667-143.36h-27.306667c-6.826667 0-13.653333-6.826667-13.653333-13.653333s6.826667-13.653333 13.653333-13.653333h27.306667c6.826667 0 13.653333 6.826667 13.653333 13.653333s-6.826667 13.653333-13.653333 13.653333z m-92.16 0h-27.306667c-6.826667 0-13.653333-6.826667-13.653333-13.653333s6.826667-13.653333 13.653333-13.653333h27.306667c6.826667 0 13.653333 6.826667 13.653333 13.653333s-6.826667 13.653333-13.653333 13.653333z m180.906667 0h-27.306667c-6.826667 0-13.653333-6.826667-13.653333-13.653333s6.826667-13.653333 13.653333-13.653333h27.306667c6.826667 0 13.653333 6.826667 13.653333 13.653333 3.413333 6.826667-3.413333 13.653333-13.653333 13.653333z m-273.066667 0h-30.72c-6.826667 0-13.653333-6.826667-13.653333-13.653333s6.826667-13.653333 13.653333-13.653333h27.306667c6.826667 0 13.653333 6.826667 13.653333 13.653333 3.413333 6.826667-3.413333 13.653333-10.24 13.653333zM204.8 8.533333H163.84v13.653334c0 6.826667-6.826667 13.653333-13.653333 13.653333h-27.306667v44.373333c0 6.826667-6.826667 13.653333-13.653333 13.653334s-13.653333-6.826667-13.653334-13.653334V32.426667h-13.653333c-6.826667 0-13.653333-6.826667-13.653333-13.653334v-64.853333c0-6.826667 6.826667-13.653333 13.653333-13.653333h64.853333c6.826667 0 13.653333 6.826667 13.653334 13.653333v13.653333H204.8c6.826667 0 13.653333 10.24 13.653333 17.066667 0 10.24-6.826667 17.066667-13.653333 23.893333z m457.386667-10.24h-27.306667c-6.826667 0-13.653333-6.826667-13.653333-13.653333s6.826667-13.653333 13.653333-13.653333h27.306667c6.826667 0 13.653333 6.826667 13.653333 13.653333s-3.413333 13.653333-13.653333 13.653333z m92.16 0h-27.306667c-6.826667 0-13.653333-6.826667-13.653333-13.653333s6.826667-13.653333 13.653333-13.653333h27.306667c6.826667 0 13.653333 6.826667 13.653333 13.653333s-6.826667 13.653333-13.653333 13.653333zM450.56 773.12h27.306667c6.826667 0 13.653333 6.826667 13.653333 13.653333s-6.826667 13.653333-13.653333 13.653334h-27.306667c-6.826667 0-13.653333-6.826667-13.653333-13.653334 0-10.24 6.826667-13.653333 13.653333-13.653333z m-92.16 0h27.306667c6.826667 0 13.653333 6.826667 13.653333 13.653333s-6.826667 13.653333-13.653333 13.653334h-27.306667c-6.826667 0-13.653333-6.826667-13.653333-13.653334 0-10.24 6.826667-13.653333 13.653333-13.653333z m184.32 0h27.306667c6.826667 0 13.653333 6.826667 13.653333 13.653333s-6.826667 13.653333-13.653333 13.653334h-27.306667c-6.826667 0-13.653333-6.826667-13.653333-13.653334 0-10.24 6.826667-13.653333 13.653333-13.653333z m-273.066667 0h27.306667c6.826667 0 13.653333 6.826667 13.653333 13.653333s-6.826667 13.653333-13.653333 13.653334h-27.306667c-10.24 0-17.066667-6.826667-17.066666-17.066667 0-6.826667 6.826667-10.24 17.066666-10.24-3.413333-3.413333-3.413333 0 0 0zM204.8 800.426667H160.426667v13.653333c0 6.826667-6.826667 13.653333-13.653334 13.653333H81.92c-6.826667 0-13.653333-6.826667-13.653333-13.653333v-64.853333c0-6.826667 6.826667-13.653333 13.653333-13.653334h13.653333V691.2c0-6.826667 10.24-13.653333 17.066667-13.653333 10.24 0 17.066667 6.826667 20.48 13.653333V732.16h13.653333c6.826667 0 13.653333 6.826667 13.653334 13.653333v27.306667H204.8c6.826667 0 13.653333 6.826667 13.653333 13.653333 3.413333 6.826667-3.413333 13.653333-13.653333 13.653334z m430.08-27.306667h27.306667c6.826667 0 13.653333 6.826667 13.653333 13.653333s-6.826667 13.653333-13.653333 13.653334h-27.306667c-6.826667 0-13.653333-6.826667-13.653333-13.653334 0-10.24 6.826667-13.653333 13.653333-13.653333z m92.16 0h27.306667c6.826667 0 13.653333 6.826667 13.653333 13.653333s-6.826667 13.653333-13.653333 13.653334h-27.306667c-6.826667 0-13.653333-6.826667-13.653333-13.653334 0-10.24 6.826667-17.066667 13.653333-13.653333zM938.666667 827.733333h-64.853334c-6.826667 0-13.653333-6.826667-13.653333-13.653333v-13.653333h-44.373333c-6.826667 0-13.653333-10.24-13.653334-17.066667 3.413333-6.826667 6.826667-13.653333 13.653334-20.48h44.373333v-13.653333c0-6.826667 6.826667-13.653333 13.653333-13.653334h23.893334V691.2c0-6.826667 6.826667-13.653333 13.653333-13.653333s13.653333 6.826667 13.653333 13.653333V732.16h13.653334c6.826667 0 13.653333 6.826667 13.653333 13.653333v68.266667c3.413333 6.826667-3.413333 13.653333-13.653333 13.653333z m0-791.893333h-13.653334v44.373333c0 6.826667-10.24 13.653333-17.066666 13.653334-6.826667-3.413333-13.653333-6.826667-20.48-13.653334v-44.373333h-13.653334c-6.826667 0-13.653333-6.826667-13.653333-13.653333v-23.893334h-44.373333c-6.826667 0-13.653333-6.826667-13.653334-13.653333s6.826667-13.653333 13.653334-13.653333h44.373333v-13.653334c0-6.826667 6.826667-13.653333 13.653333-13.653333h64.853334c6.826667 0 13.653333 6.826667 13.653333 13.653333v64.853334c3.413333 6.826667-3.413333 13.653333-13.653333 13.653333zM276.48 445.44V619.52h498.346667v-174.08h-75.093334c0 40.96-30.72 71.68-68.266666 75.093333H600.746667v-249.173333c0-40.96 30.72-71.68 68.266666-75.093333h6.826667v-75.093334H375.466667v75.093334c40.96 0 71.68 30.72 75.093333 68.266666V520.533333h-23.893333c-40.96 0-71.68-30.72-75.093334-68.266666v-6.826667H276.48z"  horiz-adv-x="1024" />

    
    <glyph glyph-name="shipin1" unicode="&#58880;" d="M617.79437048 672.84385174H125.06074062s-82.52681494 0-82.52681494-80.09955521v-405.35229653c0-80.0995552 82.52681494-80.0995552 82.52681494-80.0995552h492.73362986s82.52681494 0 82.52681494 80.0995552V590.3170368c0 82.52681494-82.52681494 82.52681494-82.52681494 82.52681494zM955.18340729 631.5804448c-7.28177813 2.42725973-14.5635552 2.42725973-19.4180736-2.42725973l-162.6263712-126.21748161c-4.8545184-4.8545184-7.28177813-9.7090368-7.28177707-14.5635552v-201.4625184c0-4.8545184 2.42725973-12.13629653 7.28177707-14.56355626l162.6263712-126.21748053c2.42725973-2.42725973 7.28177813-4.8545184 12.13629547-4.85451947 2.42725973 0 4.8545184 0 9.70903786 2.42725973 7.28177813 2.42725973 9.7090368 9.7090368 9.7090368 16.99081494V614.58962987c0 7.28177813-4.8545184 14.5635552-12.13629653 16.99081493z"  horiz-adv-x="1024" />

    
    <glyph glyph-name="iframe" unicode="&#59441;" d="M943.959596-48.003594h-863.961189V815.957596h863.961189v-863.96119zM0.01 896V-127.99h1023.934003V896H0.01zM943.967596-48.003594H80.006406V815.957596h863.96119v-863.96119zM162.489701 228.070005h-29.251686V438.427555h29.251686v-90.314943h100.324493v90.314943h29.111693v-210.35755h-29.111693V323.079737H162.489701v-95.010732z m230.18966 0V413.39468h-70.641827v25.032875H492.717867v-25.032875h-70.781821v-185.324675h-29.256685z m323.520466 0V417.375501h-0.569974l-67.496968-189.305496h-27.545762L553.085155 417.375501h-0.569975v-189.302496h-29.255685V438.427555h52.376647l60.797269-173.376212h0.570974l59.64932 173.376212h48.802808v-210.35755h-29.256686z m210.638538 0H799.39909V438.427555h29.252686V253.10288h98.186589v-25.032875z m-49.18479 494.077805l-219.541138-19.252135 44.436004-46.52291c-7.999641-8.524617-64.297112-70.829818-90.367941-161.777733 0 0 146.361425 103.276361 184.99969 61.266248l34.807436-35.009428z"  horiz-adv-x="1024" />

    
    <glyph glyph-name="ic_wenbenkuang" unicode="&#58945;" d="M991.0272 658.568533H34.6112V76.8h956.416V658.568533zM0 42.666667h1024V691.2H0v-648.533333zM34.133333 76.8h955.733334V657.066667H34.133333zM153.6 230.4H204.8v307.2H153.6z"  horiz-adv-x="1024" />

    
    <glyph glyph-name="tupian1" unicode="&#58944;" d="M359.5 599.1c-61.1 0-110.8-52.4-110.8-116.9s49.7-116.9 110.8-116.9c61.1 0 110.8 52.4 110.8 116.9s-49.7 116.9-110.8 116.9z m0.4-161.3c-23 0-41.7 20.1-41.7 44.7 0 24.7 18.7 44.7 41.7 44.7s41.7-20.1 41.7-44.7-18.7-44.7-41.7-44.7zM842.7 760.8H181.9c-47 0-85.3-40.3-85.3-89.9v-592.6c0-49.5 38.3-89.9 85.3-89.9h660.8c47 0 85.3 40.3 85.3 89.9V670.9c0 49.5-38.3 89.9-85.3 89.9z m16.4-682.5c0-9.9-7.4-17.9-16.4-17.9H181.8c-9.1 0-16.4 8.1-16.4 17.9V188.8c29.3-19.4 70-38.5 116.3-38.5 62.5 0 127.1 53.8 195.6 110.9 66.8 55.6 135.9 113.2 193.6 113.2 97 0 175.9-84 188.2-97.8v-198.3z m0 294.6c-45.2 36-110.9 73.4-188.2 73.4-81.9 0-160.5-65.6-236.7-129-56.1-46.7-114.2-95.1-152.6-95.1-52.8 0-99.7 41.1-116.3 57.5V670.9c0 9.9 7.4 17.9 16.4 17.9h660.9c9 0 16.4-8.1 16.4-17.9v-298z"  horiz-adv-x="1024" />

    
    <glyph glyph-name="huanyuan" unicode="&#59149;" d="M590.776886 736.628248c-192.626174 0-351.254811-147.296124-368.240309-339.922299H109.21145l141.629868-169.947879 141.643138 169.947879h-113.311856c16.998769 158.628637 147.309394 283.273005 311.591017 283.273006C760.724766 679.978955 902.354633 538.349087 902.354633 368.387938c0-169.974419-141.643138-311.591017-311.591016-311.591017h-28.331282v-56.649293h28.331282c203.945417 0 368.24031 164.294893 368.24031 368.24031 0.01327 203.945417-164.281623 368.24031-368.227041 368.24031z"  horiz-adv-x="1134" />

    
    <glyph glyph-name="biaoge" unicode="&#58921;" d="M843.093333 571.733333h-187.733333v-126.293333h187.733333V571.733333z m-426.666666-126.293333h187.733333V571.733333h-187.733333v-126.293333z m-47.786667 0V571.733333H180.906667v-116.053333c0-3.413333 6.826667-10.24 13.653333-10.24 58.026667-3.413333 116.053333 0 174.08 0m47.786667-174.08h187.733333v126.293333h-187.733333v-126.293333z m235.52 0h180.906666c3.413333 0 10.24 6.826667 10.24 10.24v119.466667h-191.146666v-129.706667m-471.04 3.413333h187.733333v126.293334H180.906667v-126.293334z m474.453333-174.08h187.733333v126.293334h-187.733333v-126.293334z m-47.786667 126.293334h-187.733333v-129.706667h187.733333v129.706667z m-238.933333 0H180.906667v-129.706667h187.733333v129.706667zM512 715.093333h327.68c37.546667 0 51.2-13.653333 51.2-51.2v-563.2c0-37.546667-13.653333-51.2-51.2-51.2H177.493333c-34.133333 0-47.786667 13.653333-47.786666 47.786667V667.306667c0 34.133333 13.653333 47.786667 47.786666 47.786666H512"  horiz-adv-x="1024" />

    
    <glyph glyph-name="yingyong" unicode="&#58942;" d="M407.1 411l-160.4 0.1c-44.3 0-80.2 36-80.2 80.3l0.1 160.4c0 44.3 36 80.2 80.3 80.2l160.4-0.1c44.3 0 80.2-36 80.2-80.3l-0.1-160.4c0-44.3-36-80.2-80.3-80.2zM219.5 651.4l-0.1-160.6c0-14.7 12-26.8 26.7-26.8l160.6-0.1c14.7 0 26.8 12 26.8 26.7l0.1 160.6c0 14.7-12 26.8-26.7 26.8l-160.6 0.1c-14.7 0-26.8-12-26.8-26.7zM406.1 36l-160.4 0.1c-44.3 0-80.2 36-80.2 80.3l0.1 160.4c0 44.3 36 80.2 80.3 80.2l160.4-0.1c44.3 0 80.2-36 80.2-80.3l-0.1-160.4c0-44.3-36-80.2-80.3-80.2zM246.3 304.1c-14.7 0-26.8-12-26.8-26.7l-0.1-160.6c0-14.8 12-26.8 26.7-26.8l160.6-0.1c14.7 0 26.8 12 26.8 26.7l0.1 160.6c0 14.8-12 26.8-26.7 26.8l-160.6 0.1zM778.1 410l-160.4 0.1c-44.3 0-80.2 36-80.2 80.3l0.1 160.4c0 44.3 36 80.2 80.3 80.2l160.4-0.1c44.3 0 80.2-36 80.2-80.3l-0.1-160.4c0-44.3-36-80.2-80.3-80.2zM618.3 678.1c-14.8 0-26.8-12-26.8-26.7l-0.1-160.6c0-14.7 12-26.8 26.7-26.8l160.6-0.1c14.8 0 26.8 12 26.8 26.7l0.1 160.6c0 14.7-12 26.8-26.7 26.8l-160.6 0.1zM778.1 36l-160.4 0.1c-44.3 0-80.2 36-80.2 80.3l0.1 160.4c0 44.3 36 80.2 80.3 80.2l160.4-0.1c44.3 0 80.2-36 80.2-80.3l-0.1-160.4c0-44.3-36-80.2-80.3-80.2zM591.5 276.4l-0.1-160.6c0-14.8 12-26.8 26.7-26.8l160.6-0.1c14.8 0 26.8 12 26.8 26.7l0.1 160.6c0 14.8-12 26.8-26.7 26.8l-160.6 0.1c-14.8 0-26.8-12-26.8-26.7z"  horiz-adv-x="1024" />

    
    <glyph glyph-name="yulan" unicode="&#59480;" d="M512 160a224 224 0 1 0 0 448 224 224 0 0 0 0-448z m0 64a160 160 0 1 1 0 320 160 160 0 0 1 0-320z m0-192C323.232 32 154.144 144.736 5.44 366.144a32 32 0 0 0 0 35.712C154.144 623.296 323.2 736 512 736c188.768 0 357.856-112.736 506.56-334.144a32 32 0 0 0 0-35.712C869.856 144.704 700.8 32 512 32z m0 64c159.84 0 306.72 94.784 441.248 288C818.72 577.216 671.84 672 512 672c-159.84 0-306.72-94.784-441.248-288C205.28 190.784 352.16 96 512 96z"  horiz-adv-x="1024" />

    
    <glyph glyph-name="wenzi" unicode="&#58961;" d="M170.666667 696.888889v-137.500445h85.333333V611.555556h213.333333v-483.555556H398.222222V42.666667h227.555556v85.333333H554.666667V611.555556h213.333333v-52.167112H853.333333V696.888889z"  horiz-adv-x="1024" />

    
    <glyph glyph-name="tongjitu" unicode="&#59352;" d="M938.666667 0v-64H85.333333V0h853.333334zM311.808 810.666667C328.106667 810.666667 341.333333 798.805333 341.333333 784.128v-672.256c0-14.677333-13.226667-26.538667-29.525333-26.538667H114.858667C98.56 85.333333 85.333333 97.194667 85.333333 111.872V784.128C85.333333 798.805333 98.56 810.666667 114.858667 810.666667h196.949333z m298.666667-170.666667c16.298667 0 29.525333-12.032 29.525333-26.837333v-500.992c0-14.805333-13.226667-26.837333-29.525333-26.837334H413.525333C397.226667 85.333333 384 97.365333 384 112.170667V613.162667C384 627.968 397.226667 640 413.525333 640h196.949334z m298.666666 128c16.298667 0 29.525333-11.776 29.525334-26.24v-630.186667c0-14.506667-13.226667-26.24-29.525334-26.24h-196.949333c-16.298667 0-29.525333 11.776-29.525333 26.24V741.76c0 14.506667 13.226667 26.24 29.525333 26.24h196.949333z m-29.568-52.48h-137.813333v-577.706667h137.813333V715.52z m-597.333333 42.069333h-137.813333v-619.178666h137.813333V757.589333z m298.666667-171.264h-137.813334v-447.317333h137.813334V586.325333z"  horiz-adv-x="1024" />

    
    <glyph glyph-name="menu_save_right" unicode="&#59353;" d="M829.818778 754.78857422a52.96979621 52.96979621 0 0 0 52.96979622-52.96979621v-635.63755601a52.96979621 52.96979621 0 0 0-52.96979621-52.96979622H194.181222a52.96979621 52.96979621 0 0 0-52.96979622 52.96979622V701.8187780000001a52.96979621 52.96979621 0 0 0 52.96979621 52.96979622h635.63755601z m-10.59395967-63.56375589H204.77518167v-614.39666748h614.44963665V691.2248183300001zM755.66106315 691.2777882299999v-234.23243911a84.75167379 84.75167379 0 0 0-77.01808362-84.43385512L670.90938864 372.34664451000003H353.09061136a84.75167379 84.75167379 0 0 0-84.38088594 77.01808435L268.33893685 457.09831902V691.2248183300001h487.32212631z m-63.56375588-1.16533562H331.90269273v-233.06710349a21.18791862 21.18791862 0 0 1 12.92463019-19.54585464l3.97273453-1.21830552 4.29055391-0.42375847h317.81877728a21.18791862 21.18791862 0 0 1 20.76416015 16.95033461l0.42375849 4.23758402v233.06710348zM595.63930807 655.15238755a31.78187758 31.78187758 0 0 0 31.35811984-26.64380745l0.42375847-5.13807086v-125.90920553a31.78187758 31.78187758 0 0 0-63.13999742-5.13807014l-0.42375846 5.13807015V623.4234791399999a31.78187758 31.78187758 0 0 0 31.78187758 31.78187831z"  horiz-adv-x="1024" />

    
    <glyph glyph-name="ETCjiaofei" unicode="&#58939;" d="M512 384m-480 0a480 480 0 1 1 960 0 480 480 0 1 1-960 0ZM806.4 473.6H768c-6.4 0-12.8-6.4-19.2-6.4-6.4 25.6-19.2 51.2-32 76.8-25.6 64-83.2 57.6-83.2 57.6H364.8c-44.8 0-64-44.8-64-44.8l-25.6-96c0 6.4-6.4 12.8-19.2 12.8h-32s-19.2 0-12.8-25.6c0-25.6 6.4-25.6 12.8-32 6.4 0 25.6-6.4 32-6.4v-6.4c-25.6-6.4-25.6-32-32-57.6-6.4-19.2-19.2-96 25.6-128v-44.8s0-25.6 19.2-25.6H320s19.2 0 25.6 32v25.6h332.8v-25.6c6.4-32 25.6-32 25.6-32h51.2c25.6 0 19.2 25.6 19.2 25.6v38.4c44.8 25.6 32 96 25.6 134.4-6.4 51.2-25.6 51.2-25.6 51.2v6.4c6.4 0 25.6 6.4 32 6.4 6.4 6.4 12.8 6.4 12.8 32 0 32-12.8 32-12.8 32zM716.8 441.6H313.6s-19.2 0-19.2 19.2l32 83.2s12.8 32 51.2 32h268.8s38.4 6.4 57.6-44.8l19.2-64s12.8-25.6-6.4-25.6zM236.8 345.6s0 12.8 19.2 12.8h76.8s25.6 0 32-25.6l6.4-25.6s0-12.8-12.8-19.2H268.8s-19.2 0-25.6 19.2l-6.4 38.4M793.6 345.6s0 12.8-19.2 12.8H704s-25.6 0-32-25.6l-6.4-25.6s0-12.8 12.8-19.2H768s19.2 0 25.6 19.2v38.4"  horiz-adv-x="1024" />

    
    <glyph glyph-name="huodong" unicode="&#60899;" d="M814.08-41.9328l-284.672 111.0016c-14.4896 5.632-30.6176 5.5808-45.056-0.2048l-273.92-109.6704c-40.2432-16.128-84.0704 13.5168-84.0704 56.8832V703.1296c0 57.5488 46.6432 104.2432 104.2432 104.2432h562.8416c57.5488 0 104.2432-46.6432 104.2432-104.2432v-687.9744c-0.0512-43.1104-43.4176-72.7552-83.6096-57.088zM538.9312 633.9584l39.0656-79.2064c4.352-8.8576 12.8-15.0016 22.5792-16.4352l87.3984-12.6976c24.6272-3.584 34.4576-33.8432 16.64-51.2l-63.232-61.6448a30.17216 30.17216 0 0 1-8.6528-26.5728l14.9504-87.04c4.1984-24.5248-21.5552-43.2128-43.5712-31.6416l-78.1824 41.1136c-8.7552 4.608-19.2 4.608-27.9552 0l-78.1824-41.1136c-22.016-11.5712-47.7696 7.1168-43.5712 31.6416l14.9504 87.04c1.6896 9.728-1.536 19.6608-8.6528 26.5728L319.3856 474.4704c-17.8176 17.3568-7.9872 47.616 16.64 51.2l87.3984 12.6976a29.99296 29.99296 0 0 1 22.5792 16.4352l39.0656 79.2064c11.008 22.272 42.8544 22.272 53.8624-0.0512z"  horiz-adv-x="1024" />

    
    <glyph glyph-name="youxiandianshi" unicode="&#58940;" d="M512 384m-480 0a480 480 0 1 1 960 0 480 480 0 1 1-960 0ZM326.4 147.2c0 12.8 6.4 19.2 19.2 19.2h326.4c12.8 0 19.2-6.4 19.2-19.2 0-12.8-6.4-19.2-19.2-19.2H345.6c-6.4 6.4-19.2 12.8-19.2 19.2zM697.6 556.8c32 0 57.6-25.6 57.6-57.6v-249.6c0-32-25.6-57.6-57.6-57.6H326.4c-32 0-57.6 25.6-57.6 57.6V499.2c0 32 25.6 57.6 57.6 57.6h371.2zM652.8 256c0-12.8-6.4-19.2-19.2-19.2H339.2c-12.8 6.4-19.2 12.8-19.2 19.2V486.4c0 12.8 6.4 19.2 19.2 19.2H640c6.4 0 19.2-6.4 19.2-19.2V256zM704 435.2m-25.6 0a25.6 25.6 0 1 1 51.2 0 25.6 25.6 0 1 1-51.2 0ZM704 358.4m-25.6 0a25.6 25.6 0 1 1 51.2 0 25.6 25.6 0 1 1-51.2 0ZM537.6 505.6h-12.8L518.4 512l-6.4-6.4c-12.8-6.4-25.6 0-32 6.4L409.6 620.8c-6.4 12.8-6.4 25.6 6.4 32 12.8 12.8 25.6 6.4 32-6.4l70.4-102.4 70.4 140.8c6.4 12.8 19.2 19.2 32 12.8 12.8-6.4 19.2-19.2 12.8-32L556.8 518.4c-6.4-6.4-12.8-12.8-19.2-12.8z"  horiz-adv-x="1024" />

    
    <glyph glyph-name="paizhao" unicode="&#60900;" d="M827.1872 666.0608h-49.152c-13.312 0-25.5488 7.1168-32.2048 18.6368l-24.0128 41.8304c-15.872 27.5968-45.2608 44.6464-77.1072 44.6464h-269.312c-32 0-61.4912-17.2032-77.312-45.0048l-23.4496-41.3184a37.0688 37.0688 0 0 0-32.256-18.7904h-37.9392c-76.3904 0-138.2912-61.9008-138.2912-138.2912v-393.472c0-76.3904 61.9008-138.2912 138.2912-138.2912h622.7968c76.3904 0 138.2912 61.9008 138.2912 138.2912V527.7696c-0.0512 76.3392-61.952 138.2912-138.3424 138.2912zM512 341.2992m-180.992 0a180.992 180.992 0 1 1 361.984 0 180.992 180.992 0 1 1-361.984 0ZM811.3152 477.5936h-64.512c-26.5216 0-47.9744 21.504-47.9744 47.9744 0 26.5216 21.504 47.9744 47.9744 47.9744h64.512c26.5216 0 47.9744-21.504 47.9744-47.9744 0-26.5216-21.504-47.9744-47.9744-47.9744z"  horiz-adv-x="1024" />

    
    <glyph glyph-name="zhuanzhanghuikuan" unicode="&#58941;" d="M512 384m-480 0a480 480 0 1 1 960 0 480 480 0 1 1-960 0ZM262.4 358.4l32-236.8c6.4-25.6 19.2-32 32-6.4l76.8 115.2-140.8 128zM761.6 409.6L704 646.4c-6.4 25.6-19.2 25.6-32 6.4l-57.6-115.2 147.2-128zM512 384m-262.4 0a262.4 262.4 0 1 1 524.8 0 262.4 262.4 0 1 1-524.8 0ZM416 352v-38.4h76.8v-57.6h32v57.6h76.8v38.4H524.8v25.6h76.8v38.4h-57.6l57.6 57.6-25.6 32-70.4-70.4-64 70.4-25.6-32 57.6-57.6h-57.6v-38.4h76.8v-25.6z"  horiz-adv-x="1024" />

    
    <glyph glyph-name="qianbao" unicode="&#60901;" d="M686.2848-3.1744H236.9024c-83.2512 0-150.784 67.4816-150.784 150.784V620.3904c0 83.2512 67.4816 150.784 150.784 150.784h449.3824c83.2512 0 150.784-67.4816 150.784-150.784v-472.7808c0-83.2512-67.5328-150.784-150.784-150.784zM551.936 202.5472h326.144c38.9632 0 70.6048 31.5904 70.6048 70.6048v221.696c0 38.9632-31.5904 70.6048-70.6048 70.6048h-326.144c-93.8496 0-169.9328-76.0832-169.9328-169.9328v-23.04c0-93.8496 76.0832-169.9328 169.9328-169.9328zM544.6144 384m-74.6496 0a74.6496 74.6496 0 1 1 149.2992 0 74.6496 74.6496 0 1 1-149.2992 0Z"  horiz-adv-x="1024" />

    
    <glyph glyph-name="baifenbitiaoxingduidietu" unicode="&#59687;" d="M426.666667 725.333333v-170.666666H85.333333V725.333333zM640 725.333333v-170.666666H426.666667V725.333333zM725.333333 469.312v-170.666667H85.333333v170.666667zM938.666667 469.312v-170.666667H725.333333v170.666667zM512 213.333333v-170.666666H85.333333v170.666666zM725.333333 213.333333v-170.666666H512v170.666666z"  horiz-adv-x="1024" />

    
    <glyph glyph-name="dingwei" unicode="&#60902;" d="M807.5264 310.4256H212.7872c-28.6208 0-54.1184-18.1248-63.5392-45.1584l-65.536-188.5184c-22.272-64.1024 25.2928-131.0208 93.184-131.0208h667.1872c67.9936 0 115.6096 67.1744 93.0816 131.328l-66.2016 188.416a67.1744 67.1744 0 0 1-63.4368 44.9536zM819.2 531.456c0 166.6048-147.0464 301.312-314.4704 297.8304-165.4272-3.4304-301.6192-145.8688-301.6192-311.296 0-169.6768 148.8896-323.2256 280.7808-406.9376 16.3328-10.3424 37.2736-10.2912 53.2992 0.512C679.424 207.4624 819.2 370.5344 819.2 531.456zM511.0784 547.4304m-166.4 0a166.4 166.4 0 1 1 332.8 0 166.4 166.4 0 1 1-332.8 0Z"  horiz-adv-x="1024" />

    
    <glyph glyph-name="mianjitu" unicode="&#59688;" d="M938.666667 35.562667H85.333333v597.333333l234.666667-64 192 106.666667 213.333333-21.333334 213.333334 64z"  horiz-adv-x="1024" />

    
    <glyph glyph-name="dianzan" unicode="&#60903;" d="M234.0864 14.3872V459.9296c0 18.0224-12.1344 32.6144-27.0848 32.6144H149.1968c-27.904 0-50.4832-27.2384-50.4832-60.8768v-389.0688c0-33.6384 22.6304-60.8768 50.4832-60.8768h57.8048c14.9504 0 27.0848 14.6432 27.0848 32.6656zM272.9984 5.2736V469.4528c0 10.7008 7.168 20.1216 17.5104 22.7328 36.4544 9.3184 120.1152 42.7008 155.6992 156.6208 21.6576 99.7888 45.1584 146.8416 114.8416 141.2096s74.3424-73.4208 74.3424-94.1056v-160s-5.632-24.4736 17.8688-26.368c23.552-1.8944 207.104 0 207.104 0s100.7104 1.6896 68.7104-123.392c-27.8528-108.8-82.944-283.8528-96.8704-327.6288-2.8672-9.0624-6.9632-17.6128-12.3392-25.4976-13.4656-19.6608-41.7792-51.2-85.0432-51.2H296.4992c-13.0048-0.1024-23.5008 10.4448-23.5008 23.4496z"  horiz-adv-x="1024" />

    
    <glyph glyph-name="loudoutu" unicode="&#59689;" d="M170.666667 810.666667h682.666666v-170.666667H170.666667zM789.333333 405.333333H234.666667L170.666667 640h682.666666zM768 192H256l-21.333333 213.333333h554.666666zM512-42.666667L256 192h512z"  horiz-adv-x="1024" />

    
    <glyph glyph-name="shoucang" unicode="&#60904;" d="M582.1952 776.3968l72.8064-147.5072a89.6 89.6 0 0 1 67.5328-49.0496l162.7648-23.6544c73.5744-10.7008 102.9632-101.12 49.7152-152.9856l-117.8112-114.7904a89.7792 89.7792 0 0 1-25.8048-79.4112l27.8016-162.0992c12.544-73.2672-64.3584-129.1776-130.1504-94.5664l-145.6128 76.544c-26.112 13.7216-57.344 13.7216-83.5072 0l-145.6128-76.544c-65.792-34.6112-142.7456 21.2992-130.1504 94.5664l27.8016 162.0992c4.9664 29.0816-4.6592 58.7776-25.8048 79.4112L68.5056 403.1488c-53.248 51.9168-23.8592 142.336 49.7152 152.9856l162.7648 23.6544c29.2352 4.2496 54.4768 22.5792 67.5328 49.0496l72.8064 147.5072c32.9216 66.7136 127.9488 66.7136 160.8704 0.0512zM535.5008 538.368l30.5152-61.8496a37.63712 37.63712 0 0 1 28.3136-20.5824l68.2496-9.9328c30.8736-4.5056 43.1616-42.3936 20.8384-64.1536l-49.408-48.128a37.6064 37.6064 0 0 1-10.8032-33.28L634.88 232.448c5.2736-30.72-26.9824-54.1696-54.5792-39.68l-61.0304 32.1024a37.49888 37.49888 0 0 1-35.0208 0l-61.0304-32.1024c-27.5968-14.4896-59.8528 8.9088-54.5792 39.68l11.6736 67.9936c2.0992 12.1856-1.9456 24.6784-10.8032 33.28l-49.408 48.128c-22.3232 21.76-9.984 59.6992 20.8384 64.1536l68.2496 9.9328a37.63712 37.63712 0 0 1 28.3136 20.5824l30.5152 61.8496c13.824 27.9552 53.6576 27.9552 67.4816 0z"  horiz-adv-x="1024" />

    
    <glyph glyph-name="baifenbizhuzhuangduidietu" unicode="&#59690;" d="M85.333333 512h213.333334v-128H85.333333zM85.333333 384h213.333334v-341.333333H85.333333zM405.333333 725.333333h213.333334v-170.666666H405.333333zM405.333333 554.666667h213.333334v-512H405.333333zM725.333333 597.333333h213.333334v-170.666666H725.333333zM725.333333 426.666667h213.333334v-384H725.333333z"  horiz-adv-x="1024" />

    
    <glyph glyph-name="yaoqing" unicode="&#60905;" d="M733.952 814.3872H292.3008c-74.9568 0-135.7312-60.7744-135.7312-135.7312v-438.1184c0-18.4832 14.9504-33.4336 33.4336-33.4336h646.2464c18.4832 0 33.4336 14.9504 33.4336 33.4336V678.656c0 74.9568-60.7744 135.7312-135.7312 135.7312zM815.104 438.7328l-267.008-124.8256a82.45248 82.45248 0 0 0-69.9904 0L211.1488 438.7328c-54.784 25.6-117.6064-14.3872-117.6064-74.8544v-280.7808c0-71.5264 57.9584-129.4848 129.4848-129.4848h580.2496c71.5264 0 129.4848 57.9584 129.4848 129.4848v280.7808c0 60.4672-62.8736 100.4544-117.6576 74.8544zM674.7648 616.6528H351.4368c-26.5216 0-47.9744 21.504-47.9744 47.9744 0 26.5216 21.504 47.9744 47.9744 47.9744h323.328c26.5216 0 47.9744-21.504 47.9744-47.9744 0.0512-26.5216-21.4528-47.9744-47.9744-47.9744zM674.7648 450.3552H351.4368c-26.5216 0-47.9744 21.504-47.9744 47.9744 0 26.5216 21.504 47.9744 47.9744 47.9744h323.328c26.5216 0 47.9744-21.504 47.9744-47.9744 0.0512-26.4704-21.4528-47.9744-47.9744-47.9744z"  horiz-adv-x="1024" />

    
    <glyph glyph-name="mianjiduidietu" unicode="&#59691;" d="M938.666667 42.666667H85.333333V362.666667l234.666667-64 192 106.666666 213.333333-21.333333 213.333334 64v-405.333333zM725.333333 661.333333l-213.333333 21.333334-192-106.666667-234.666667 64v-277.333333l234.666667-64 192 106.666666 213.333333-21.333333 213.333334 64V725.333333z"  horiz-adv-x="1024" />

    
    <glyph glyph-name="biaoqian" unicode="&#60906;" d="M908.2368 432.1792l-156.5696-441.856c-18.8928-53.3504-77.568-81.152-130.816-61.952l-369.152 132.8128c-58.9312 21.1968-85.0432 89.9584-55.0912 144.9472l38.4512 70.5536 278.7328-132.0448 394.4448 287.5392zM117.2992 445.5936l374.784 370.4832c19.968 19.712 47.616 29.5936 75.5712 26.9824l271.2576-25.6c45.7728-4.3008 81.6128-41.216 84.6336-87.04l17.152-259.7888c1.792-27.3408-8.2944-54.1184-27.6992-73.4208l-373.248-371.712c-40.2432-40.0896-105.2672-40.192-145.664-0.3072L117.3504 298.496c-41.0112 40.448-41.0112 106.5984-0.0512 147.0976zM767.0784 668.7744m-60.1088 0a60.1088 60.1088 0 1 1 120.2176 0 60.1088 60.1088 0 1 1-120.2176 0ZM696.2176 480.4608l-117.9648 4.2496-4.4032 116.1728a33.26464 33.26464 0 0 1-34.5088 32 33.29024 33.29024 0 0 1-32-34.5088l3.584-94.9248-37.376 37.7344a33.24928 33.24928 0 0 1-47.0528 0.2048 33.24928 33.24928 0 0 1-0.2048-47.0528l57.7536-58.2656L450.56 402.1248 393.1136 460.0832a33.24928 33.24928 0 0 1-47.0528 0.2048 33.24928 33.24928 0 0 1-0.2048-47.0528l58.0096-58.5216-36.0448-36.608a33.24928 33.24928 0 0 1 0.3584-47.0528 33.11104 33.11104 0 0 1 23.3472-9.5744c8.6016 0 17.2032 3.328 23.7056 9.9328l35.4304 35.9936 55.9104-56.4224a33.1776 33.1776 0 0 1 23.6544-9.8304 33.24928 33.24928 0 0 1 23.6544 56.6784l-56.5248 57.0368 33.4336 33.9456 56.2176-56.7296a33.1776 33.1776 0 0 1 23.6544-9.8304 33.24928 33.24928 0 0 1 23.6544 56.6784l-38.1952 38.5024 97.6384-3.5328h1.2288c17.8176 0 32.6144 14.1312 33.2288 32.0512a33.2288 33.2288 0 0 1-32 34.5088z"  horiz-adv-x="1024" />

    
    <glyph glyph-name="huanxingtu" unicode="&#59692;" d="M512-42.666667a423.893333 423.893333 0 0 0-301.696 124.970667A423.893333 423.893333 0 0 0 85.333333 384 423.893333 423.893333 0 0 0 210.304 685.696 423.893333 423.893333 0 0 0 512 810.666667v-213.333334a213.568 213.568 0 0 1-213.333333-213.333333 213.568 213.568 0 0 1 213.333333-213.333333 213.568 213.568 0 0 1 213.333333 213.333333h213.333334a423.893333 423.893333 0 0 0-124.970667-301.696A423.893333 423.893333 0 0 0 512-42.666667z m426.432 439.893334a433.322667 433.322667 0 0 1-5.824 58.901333 428.629333 428.629333 0 0 0 5.866667-58.901333zM680.618667 776.256a429.376 429.376 0 0 1-110.933334 30.528A423.018667 423.018667 0 0 0 680.533333 776.256zM725.333333 384a213.333333 213.333333 0 0 1-213.333333 213.333333V810.666667a426.666667 426.666667 0 0 0 426.666667-426.666667z"  horiz-adv-x="1024" />

    
    <glyph glyph-name="renzheng" unicode="&#60907;" d="M791.8592 338.3296h-149.6064v49.3056c73.8816 43.1104 123.5456 123.136 123.5456 214.8352 0 137.3184-111.3088 248.6784-248.6784 248.6784-137.3184 0-248.6784-111.3088-248.6784-248.6784 0-91.392 49.3568-171.2128 122.8288-214.4256v-49.7664H237.7216c-77.6192 0-140.5952-62.9248-140.5952-140.5952v-93.4912h835.328v93.4912c0 77.7216-62.9248 140.6464-140.5952 140.6464zM838.2464-64.3584H191.3344c-52.0192 0-94.208 42.1888-94.208 94.208v9.0112h835.328v-9.0112c0-52.0704-42.1888-94.208-94.208-94.208z"  horiz-adv-x="1024" />

    
    <glyph glyph-name="ciyuntu" unicode="&#59693;" d="M298.666667 810.666667h256v-170.666667H298.666667zM725.333333 640v-256h-170.666666V640zM938.666667 597.333333v-256h-170.666667V597.333333zM768 170.666667H512v170.666666h256zM725.333333-42.666667H469.333333v170.666667h256zM298.666667 128V384h170.666666v-256zM85.333333 170.666667V426.666667h170.666667v-256zM256 597.333333h256v-170.666666H256z"  horiz-adv-x="1024" />

    
    <glyph glyph-name="xihuan" unicode="&#60908;" d="M825.2416 678.2464c-86.528 86.528-226.816 86.528-313.344 0l-1.1264-1.1264c-21.8624-21.8624-57.2928-21.8624-79.1552 0l-1.1264 1.1264c-86.528 86.528-226.816 86.528-313.344 0-86.528-86.528-86.528-226.816 0-313.344l40.704-40.704 253.9008-253.9008c32.8192-32.8192 86.0672-32.8192 118.9376 0l294.6048 294.6048c86.4768 86.528 86.4768 226.816-0.0512 313.344zM926.2592 487.424c-64.4608 64.4608-168.96 64.4608-233.4208 0l-0.8192-0.8192a41.71776 41.71776 0 0 0-58.9824 0l-0.8192 0.8192c-64.4608 64.4608-168.96 64.4608-233.4208 0-64.4608-64.4608-64.4608-168.96 0-233.4208l30.3104-30.3104 189.1328-189.1328c24.4736-24.4736 64.1536-24.4736 88.576 0l219.4432 219.4432c64.4096 64.4608 64.4096 168.96 0 233.4208z"  horiz-adv-x="1024" />

    
    <glyph glyph-name="sandiantu" unicode="&#59694;" d="M192 149.333333m-106.666667 0a106.666667 106.666667 0 1 1 213.333334 0 106.666667 106.666667 0 1 1-213.333334 0ZM512 320m-106.666667 0a106.666667 106.666667 0 1 1 213.333334 0 106.666667 106.666667 0 1 1-213.333334 0ZM832 149.333333m-106.666667 0a106.666667 106.666667 0 1 1 213.333334 0 106.666667 106.666667 0 1 1-213.333334 0ZM874.666667 533.333333m-64 0a64 64 0 1 1 128 0 64 64 0 1 1-128 0ZM448 682.666667m-42.666667 0a42.666667 42.666667 0 1 1 85.333334 0 42.666667 42.666667 0 1 1-85.333334 0ZM256 469.333333m-42.666667 0a42.666667 42.666667 0 1 1 85.333334 0 42.666667 42.666667 0 1 1-85.333334 0Z"  horiz-adv-x="1024" />

    
    <glyph glyph-name="liwu" unicode="&#60909;" d="M751.6672-52.0704H249.1392c-66.4064 0-120.2688 53.8624-120.2688 120.2688V447.4368H871.936v-379.2384c0-66.4576-53.8624-120.2688-120.2688-120.2688zM901.888 485.632H120.1664c-31.0272 0-56.2176 25.1904-56.2176 56.2176V593.4592c0 31.0272 25.1904 56.2176 56.2176 56.2176h781.7216c31.0272 0 56.2176-25.1904 56.2176-56.2176v-51.6096c0-31.0272-25.1904-56.2176-56.2176-56.2176zM316.8768 687.2576h186.5728L371.968 819.6608a27.392 27.392 0 0 1-38.7072 0.1536L279.3472 766.464a27.38176 27.38176 0 0 1-0.768-38.144l38.2976-41.0624zM686.9504 687.2576H500.4288l131.4816 132.4032a27.392 27.392 0 0 0 38.7072 0.1536l53.9136-53.3504a27.38176 27.38176 0 0 0 0.768-38.144l-38.3488-41.0624z"  horiz-adv-x="1024" />

    
    <glyph glyph-name="relitu" unicode="&#59695;" d="M512 725.333333l-256-64-170.666667-192 85.333334-234.666666-42.666667-106.666667 170.666667-149.333333 192 64 106.666666-85.333334 192 64-42.666666 128 106.666666 128-42.666666 362.666667-298.666667 85.333333zM510.528 637.013333l222.037333-63.445333 31.744-269.781333-83.2-99.818667-30.421333-36.522667 14.933333-45.098666 15.68-47.04-67.008-22.336-70.4 56.341333-36.266666 28.992-44.032-14.677333-145.621334-48.533334-88.384 77.333334 20.224 50.56 12.096 30.250666-11.136 30.613334-67.946666 186.837333 119.338666 134.272 208.256 52.074667"  horiz-adv-x="1024" />

    
    <glyph glyph-name="xiangce" unicode="&#60910;" d="M752.9472-45.2096H271.0528c-104.2944 0-188.8768 84.5824-188.8768 188.8768V625.6128c0 104.2944 84.5824 188.8768 188.8768 188.8768h481.9456c104.2944 0 188.8768-84.5824 188.8768-188.8768v-481.9456c0-104.2944-84.5824-188.8768-188.928-188.8768zM512 548.608m-156.7232 0a156.7232 156.7232 0 1 1 313.4464 0 156.7232 156.7232 0 1 1-313.4464 0ZM512 378.4192c-157.5936 0-285.3888-127.7952-285.3888-285.3888v-1.7408c0.1536-24.1664 19.8144-44.2368 43.9808-44.288H753.3568c24.1664 0.0512 43.8272 20.1216 43.9808 44.288v1.7408c0.0512 157.5936-127.744 285.3888-285.3376 285.3888z"  horiz-adv-x="1024" />

    
    <glyph glyph-name="tiaoxingtu" unicode="&#59696;" d="M640 725.333333v-170.666666H85.333333V725.333333zM938.666667 469.312v-170.666667H85.333333v170.666667zM725.333333 213.333333v-170.666666H85.333333v170.666666z"  horiz-adv-x="1024" />

    
    <glyph glyph-name="shijian" unicode="&#60911;" d="M808.0384-37.0688H689.152V530.3808h118.8352c67.6352 0 122.4192-54.8352 122.4192-122.4192v-322.5088c0.0512-67.6864-54.784-122.5216-122.368-122.5216zM753.4592-37.0688h-501.248c-82.3296 0-149.0432 66.7136-149.0432 149.0432V659.7632c0 82.3296 66.7136 149.0432 149.0432 149.0432h352.2048c82.3296 0 149.0432-66.7136 149.0432-149.0432v-696.832zM584.0896 546.9184h-329.216c-26.5216 0-47.9744 21.504-47.9744 47.9744v1.3824c0 26.5216 21.504 47.9744 47.9744 47.9744h329.2672c26.5216 0 47.9744-21.504 47.9744-47.9744v-1.3824c0-26.5216-21.504-47.9744-48.0256-47.9744zM584.0896 343.296h-329.216c-26.5216 0-47.9744 21.504-47.9744 47.9744v1.3824c0 26.5216 21.504 47.9744 47.9744 47.9744h329.2672c26.5216 0 47.9744-21.504 47.9744-47.9744v-1.3824c0-26.4704-21.504-47.9744-48.0256-47.9744zM475.2896 139.6736H254.8736c-26.5216 0-47.9744 21.504-47.9744 47.9744v1.3824c0 26.5216 21.504 47.9744 47.9744 47.9744h220.416c26.5216 0 47.9744-21.504 47.9744-47.9744v-1.3824c0-26.4704-21.4528-47.9744-47.9744-47.9744z"  horiz-adv-x="1024" />

    
    <glyph glyph-name="tiaoxingduidietu" unicode="&#59697;" d="M640 725.333333v-85.333333H85.333333V725.333333zM640 640v-85.333333H85.333333v85.333333zM938.666667 384v-85.333333H85.333333v85.333333zM938.666667 469.312v-85.333333H85.333333v85.333333zM725.333333 128v-85.333333H85.333333v85.333333zM725.333333 213.333333v-85.333333H85.333333v85.333333z"  horiz-adv-x="1024" />

    
    <glyph glyph-name="xianxingfanzhuantu" unicode="&#59698;" d="M874.666667 213.333333a63.530667 63.530667 0 0 0-56.746667 93.013334l-280.042667 296.533333a63.125333 63.125333 0 0 0-51.754666 0L206.08 306.346667a63.765333 63.765333 0 1 0-30.890667 29.44l280.064 296.533333a64 64 0 1 0 113.493334 0l280.064-296.533333A64 64 0 1 0 874.666667 213.333333zM874.666667 426.666667a63.424 63.424 0 0 0-25.856 5.546666L568.746667 135.68a64 64 0 1 0-113.493334 0L175.189333 432.213333a65.237333 65.237333 0 1 0 30.890667 29.44l280.042667-296.533333a63.125333 63.125333 0 0 0 51.754666 0l280.042667 296.533333A63.36 63.36 0 0 0 810.666667 490.666667a64 64 0 1 0 64-64z"  horiz-adv-x="1024" />

    
    <glyph glyph-name="shujuji" unicode="&#59699;" d="M128 768h341.333333v-341.333333H128zM554.666667 768h341.333333v-341.333333H554.666667zM128 341.333333h341.333333v-341.333333H128zM554.666667 341.333333h341.333333v-341.333333H554.666667z"  horiz-adv-x="1024" />

    
    <glyph glyph-name="xianxingtu" unicode="&#59700;" d="M874.666667 554.666667a63.530667 63.530667 0 0 1-56.746667-93.013334l-280.042667-296.533333a63.125333 63.125333 0 0 1-51.754666 0L206.08 461.653333a63.765333 63.765333 0 1 1-30.890667-29.44l280.064-296.533333a64 64 0 1 1 113.493334 0l280.064 296.533333A64 64 0 1 1 874.666667 554.666667zM874.666667 341.333333a63.445333 63.445333 0 0 1-25.856-5.546666L568.746667 632.32a64 64 0 1 1-113.493334 0L175.189333 335.786667a65.237333 65.237333 0 1 1 30.890667-29.44l280.042667 296.533333a63.125333 63.125333 0 0 1 51.754666 0l280.042667-296.533333A63.808 63.808 0 1 1 874.666667 341.333333z"  horiz-adv-x="1024" />

    
    <glyph glyph-name="zhuzhuangduidietu" unicode="&#59701;" d="M192 512h106.666667v-469.333333H192zM85.333333 512h106.666667v-469.333333H85.333333zM512 725.333333h106.666667v-682.666666h-106.666667zM405.333333 725.333333h106.666667v-682.666666h-106.666667zM832 597.333333h106.666667v-554.666666h-106.666667zM725.333333 597.333333h106.666667v-554.666666h-106.666667z"  horiz-adv-x="1024" />

    
    <glyph glyph-name="shanxingtu" unicode="&#59702;" d="M512 384V810.666667a426.666667 426.666667 0 1 1 426.666667-426.666667zM576 805.354667V448h357.354667A426.261333 426.261333 0 0 1 576 805.354667z"  horiz-adv-x="1024" />

    
    <glyph glyph-name="zhuzhuangtu" unicode="&#59703;" d="M85.333333 512h213.333334v-469.333333H85.333333zM405.333333 725.333333h213.333334v-682.666666H405.333333zM725.333333 597.333333h213.333334v-554.666666H725.333333z"  horiz-adv-x="1024" />

    
    <glyph glyph-name="leidatu" unicode="&#59704;" d="M533.333333 43.733333a341.034667 341.034667 0 0 1 295.872 214.762667l81.066667-26.346667A426.154667 426.154667 0 0 0 533.333333-41.578667zM113.664 232.149333l81.066667 26.346667A341.013333 341.013333 0 0 1 490.666667 43.733333v-85.333333A426.197333 426.197333 0 0 0 113.664 232.149333z m728.597333 66.965334A341.12 341.12 0 0 1 853.333333 384a340.672 340.672 0 0 1-123.733333 263.061333l50.133333 69.013334A425.706667 425.706667 0 0 0 938.666667 384a426.154667 426.154667 0 0 0-15.168-111.274667zM85.333333 384a425.664 425.664 0 0 0 159.04 332.053333l50.133334-69.013333A340.672 340.672 0 0 1 170.666667 384a340.16 340.16 0 0 1 11.072-84.885333l-81.237334-26.389334A426.154667 426.154667 0 0 0 85.333333 384zM512 725.333333a339.2 339.2 0 0 1-182.805333-53.333333l-50.282667 69.205333A424.405333 424.405333 0 0 0 512 810.666667a424.405333 424.405333 0 0 0 233.088-69.546667l-50.282667-69.205333A339.2 339.2 0 0 1 512 725.333333zM533.333333 171.733333a213.482667 213.482667 0 0 1 173.888 126.421334l81.408-26.453334A298.496 298.496 0 0 0 533.333333 86.4z m-297.962666 99.946667l81.429333 26.453333A213.44 213.44 0 0 1 490.666667 171.712v-85.333333a298.496 298.496 0 0 0-255.296 185.301333z m485.056 67.029333A214.485333 214.485333 0 0 1 725.333333 384a212.522667 212.522667 0 0 1-71.445333 158.997333l50.410667 69.376A297.92 297.92 0 0 0 810.666667 384a298.816 298.816 0 0 0-9.024-71.68zM213.333333 384a297.856 297.856 0 0 0 106.389334 228.266667l50.389333-69.376A212.522667 212.522667 0 0 1 298.666667 384a213.461333 213.461333 0 0 1 4.928-45.290667l-81.237334-26.389333A298.026667 298.026667 0 0 0 213.333333 384z m298.666667 213.333333a211.904 211.904 0 0 1-107.392-29.226666l-50.282667 69.184A296.661333 296.661333 0 0 0 512 682.666667a296.746667 296.746667 0 0 0 157.696-45.354667l-50.304-69.184A211.861333 211.861333 0 0 1 512 597.333333zM533.333333 301.674667a85.013333 85.013333 0 0 1 50.453334 36.565333l82.496-26.816a170.666667 170.666667 0 0 0-132.970667-96.618667z m-175.637333 9.728l82.496 26.816a85.013333 85.013333 0 0 1 50.453333-36.565334v-86.890666a170.666667 170.666667 0 0 0-132.949333 96.704z m239.125333 67.477333c0.106667 1.728 0.512 3.349333 0.512 5.098667a84.522667 84.522667 0 0 1-19.754666 53.994666l51.2 70.4A170.005333 170.005333 0 0 0 682.666667 384a169.109333 169.109333 0 0 0-3.114667-32zM341.333333 384a169.984 169.984 0 0 0 53.973334 124.330667l51.2-70.4A84.522667 84.522667 0 0 1 426.666667 384c0-1.749333 0.405333-3.370667 0.512-5.098667L344.448 352A169.130667 169.130667 0 0 0 341.333333 384z m170.666667 85.333333a84.778667 84.778667 0 0 1-31.210667-6.08l-51.050666 70.272A169.984 169.984 0 0 0 512 554.666667a169.984 169.984 0 0 0 82.24-21.141334l-51.050667-70.272A84.778667 84.778667 0 0 1 512 469.333333z"  horiz-adv-x="1024" />

    
    <glyph glyph-name="xuritu" unicode="&#59705;" d="M512 85.333333a300.181333 300.181333 0 0 0-60.928 6.250667l-26.090667-125.312a426.794667 426.794667 0 0 1 323.669334 62.762667l-70.997334 106.496A297.173333 297.173333 0 0 0 512 85.333333zM512 682.666667V810.666667A425.344 425.344 0 0 1 210.304 685.696L300.8 595.2A297.642667 297.642667 0 0 0 512 682.666667zM810.666667 384c0-8.362667-0.576-16.597333-1.258667-24.789333l127.466667-10.666667c0.96 11.712 1.792 23.466667 1.792 35.413333a424.768 424.768 0 0 1-117.205334 293.162667l-92.842666-87.936A297.408 297.408 0 0 0 810.666667 384zM213.333333 384c0 4.266667 0.448 8.277333 0.618667 12.416l-127.722667 5.333333C85.994667 395.818667 85.333333 389.994667 85.333333 384a424.533333 424.533333 0 0 1 71.701334-236.650667l106.496 70.997334A297.173333 297.173333 0 0 0 213.333333 384zM512 192a194.133333 194.133333 0 0 0-39.168 4.010667l-21.76-104.426667A300.181333 300.181333 0 0 1 512 85.333333a297.173333 297.173333 0 0 1 165.653333 50.197334l-59.157333 88.746666A190.997333 190.997333 0 0 0 512 192zM320 384c0 2.688 0.298667 5.312 0.405333 7.978667l-106.453333 4.437333c-0.170667-4.138667-0.618667-8.213333-0.618667-12.416a297.173333 297.173333 0 0 1 50.197334-165.653333l88.746666 59.157333A190.997333 190.997333 0 0 0 320 384zM512 576v106.666667a297.642667 297.642667 0 0 1-211.2-87.466667l75.413333-75.413333A191.402667 191.402667 0 0 0 512 576zM728.618667 589.226667l-77.354667-73.301334A191.189333 191.189333 0 0 0 704 384c0-5.376-0.362667-10.666667-0.810667-15.936l106.218667-8.853333c0.682667 8.192 1.258667 16.426667 1.258667 24.789333a297.408 297.408 0 0 1-82.048 205.226667zM512 469.333333v106.666667a191.402667 191.402667 0 0 1-135.765333-56.234667l75.434666-75.434666A84.992 84.992 0 0 0 512 469.333333zM512 298.666667a86.613333 86.613333 0 0 0-17.408 1.792l-21.76-104.533334A194.133333 194.133333 0 0 1 512 192a190.997333 190.997333 0 0 1 106.496 32.277333l-59.178667 88.746667A84.906667 84.906667 0 0 0 512 298.666667zM426.666667 384c0 1.216 0.298667 2.346667 0.362666 3.541333l-106.666666 4.437334c-0.106667-2.666667-0.405333-5.290667-0.405334-7.978667a190.997333 190.997333 0 0 1 32.277334-106.496l88.746666 59.178667A84.928 84.928 0 0 0 426.666667 384zM597.333333 384c0-2.410667-0.512-4.693333-0.704-7.061333l106.56-8.874667A187.52 187.52 0 0 1 704 384a191.189333 191.189333 0 0 1-52.736 131.925333l-77.461333-73.365333A84.778667 84.778667 0 0 0 597.333333 384zM651.264 515.925333l77.354667 73.301334A297.578667 297.578667 0 0 1 512 682.666667v-106.666667a191.296 191.296 0 0 0 139.264-60.074667zM512 576v-106.666667a84.864 84.864 0 0 0 61.866667-26.773333l77.461333 73.365333A191.296 191.296 0 0 1 512 576zM451.669333 444.330667l-75.434666 75.434666a191.253333 191.253333 0 0 1-55.829334-127.786666l106.666667-4.437334a84.864 84.864 0 0 0 24.597333 56.789334zM559.317333 313.024l59.178667-88.746667a191.68 191.68 0 0 1 84.693333 143.786667l-106.56 8.874667a85.056 85.056 0 0 0-37.312-63.914667zM441.024 336.682667l-88.746667-59.178667a192.128 192.128 0 0 1 120.554667-81.493333l21.76 104.533333a85.461333 85.461333 0 0 0-53.568 36.138667z"  horiz-adv-x="1024" />

    
    <glyph glyph-name="yibiaopan" unicode="&#59706;" d="M331.072 203.072a256 256 0 1 0 361.856 0l120.768-120.768a426.666667 426.666667 0 1 1-603.392 0zM512-42.666667a425.194667 425.194667 0 0 1 134.848 22.101334L512 384l-134.848-404.565333A425.194667 425.194667 0 0 1 512-42.666667z"  horiz-adv-x="1024" />

    
    <glyph glyph-name="cuzhuangtiaoxing" unicode="&#58901;" d="M613.912 639.504L617.248 808H91.704v-168.496h522.208z m0 0M776.968 429.96l4.376 168.496H91.704v-168.496h685.264z m0 0M41.8-79.608V807.856H0V-128h1009.936v48.392H41.8z m0 0M613.912 174.488l3.336 168.496H91.704v-168.496h522.208z m0 0M768.968-35.056l4.376 168.496H83.704v-168.496h685.264z m0 0"  horiz-adv-x="1024" />

    
    <glyph glyph-name="bingtu" unicode="&#58902;" d="M474.250111 896l-0.437515-511.629783 0.182961-3.714898c0.127277-1.368228 0.318193-2.728501 0.564792-4.08082a38.413798 38.413798 0 0 1 8.233233-28.68506l2.688727-2.998965 347.824249-360.329217a510.587702 510.587702 0 0 0-320.59492-112.560621C229.536163-127.991409 0 101.536799 0 384.712274 0 654.929357 209.060471 876.343654 474.250111 896zM591.018828 346.250748l432.980536 0.079548a510.794527 510.794527 0 0 0-134.452269-309.283175L591.018828 346.282567l432.980536 0.079548-432.980536-0.079548v-0.031819zM550.727695 423.165846L551.157255 896c252.461937-18.709723 454.052838-220.284714 472.818244-472.714832l-473.22394-0.095458L551.157255 896l-0.437515-472.818245v-0.015909z"  horiz-adv-x="1029" />

    
    <glyph glyph-name="duijitiaoxing" unicode="&#58903;" d="M91.704 670.456v-168.496h258.416l1.648 168.496M41.8-79.608V807.856H0V-128h1009.936v48.392H41.8z m0 0M427.376 230.488l2.168 168.496h-341.84v-168.496h339.672z m0 0M470.536-35.056l2.472 168.496H83.704v-168.496h386.832zM405.288 667.488v-168.496h265.552l1.696 168.496M768.256 227.52l1.824 168.496H482.648V227.52h285.608z m0 0M878.384-38.024l2.344 168.496H512v-168.496h366.384z"  horiz-adv-x="1024" />

    
    <glyph glyph-name="duijizhexian" unicode="&#58904;" d="M686.16 20.64L499.152 200.176H58.752v59.84H523.28l162.88-155.584 156.856 155.584H1024v-59.84h-156.848L686.16 20.64z m0 0M58.752 143.784l-42.232 41.88 343.864 341.112 241.32-239.384 361.968 359.056 42.232-41.88-404.208-400.944-241.296 239.36-301.648-299.2z m0 0M1024-128H0V896h60.232v-963.768H1024z"  horiz-adv-x="1024" />

    
    <glyph glyph-name="huanxingbingtu" unicode="&#58905;" d="M463.368 60.4c-139.688 23.544-278.456 159-278.456 323.256 6.512 159.328 121.848 293.224 278.456 323.256V895.352C230.768 871.808 0.008 651.92 0.008 384.296c0-267.616 230.624-488.16 463.352-511.048V60.4z m0 0M837.352 384.296a322.96 322.96 0 0 0-21.6-121.048l161.832-93.592a520.536 520.536 0 0 1 44.528 214.64m0 0c6.728 267.888-199.096 493.376-466.488 511.056l0.648-187.8c186.088-23.576 281.08-159 281.08-323.256M770.336 184.072a315.104 315.104 0 0 0-212.056-121.832v-188a533.704 533.704 0 0 1 371.096 216.168l-159.04 93.664z m0 0"  horiz-adv-x="1024" />

    
    <glyph glyph-name="duijimianji" unicode="&#58906;" d="M1014.912-64.568H63.432V633.184H0V-128h1014.912zM824.624 442.888L634.32 284.304 348.88 569.752 126.864 284.304v-285.44h824.616zM632 410.76L308.88 657.208l-155.824-214.32-52.384 42.856 202.68 239.272 334.176-250 165.032 137.496 44.12-46.408L632 410.76zM365.568 569.752"  horiz-adv-x="1024" />

    
    <glyph glyph-name="ciyuntu1" unicode="&#58907;" d="M1022.248 254.368c0-145.632-118.064-263.696-263.704-263.696H231.144C115.48-9.456 17.6 76.064 2.208 190.696c-15.392 114.632 56.456 222.952 168.056 253.344 25.608 143.632 142.568 253.352 287.536 269.752 144.968 16.4 283.488-64.408 340.536-198.688 128.784-19.68 223.904-130.448 223.912-260.736z m-263.704-197.768c106.512 0 193.888 84.344 197.656 190.784 3.768 106.44-77.432 196.744-183.68 204.28l-21.624 1.512-7.184 20.432C702.72 589.976 586.544 662.384 464.016 647.944c-122.528-14.448-218.68-111.88-231.496-234.592l-2.568-25.216-25.056-3.952C120.08 370.48 60.008 293.928 66.872 208.28c6.856-85.648 78.352-151.664 164.272-151.688h527.4zM346.376 409.288a49.448 49.448 0 1 0 0.016 98.896 49.448 49.448 0 0 0-0.016-98.896z m-32.96-65.928a32.96 32.96 0 1 0 65.928 0v-197.776a32.968 32.968 0 1 0-65.928 0V343.36zM626.56 442.248H461.744a32.968 32.968 0 1 0 0 65.928H659.52a32.96 32.96 0 0 0 32.968-32.96v-329.624a32.968 32.968 0 1 0-65.928 0V442.248zM461.744 343.36a32.968 32.968 0 1 0 0 65.928H560.64a32.96 32.96 0 0 0 0-65.928H461.744z m-32.96-65.92a32.976 32.976 0 0 0 32.968 32.968H560.64a32.96 32.96 0 0 0 32.96-32.968v-98.888a32.96 32.96 0 0 0-32.96-32.96H461.744a32.96 32.96 0 0 0-32.968 32.96V277.44z m65.92-32.968v-32.96h32.968v32.96h-32.968z m0 0M346.376 409.288a49.448 49.448 0 1 0 0.016 98.896 49.448 49.448 0 0 0-0.016-98.896z m-32.96-65.928a32.96 32.96 0 1 0 65.928 0v-197.776a32.968 32.968 0 1 0-65.928 0V343.36zM626.56 442.248H461.744a32.968 32.968 0 1 0 0 65.928H659.52a32.96 32.96 0 0 0 32.968-32.96v-329.624a32.968 32.968 0 1 0-65.928 0V442.248zM461.744 343.36a32.968 32.968 0 1 0 0 65.928H560.64a32.96 32.96 0 0 0 0-65.928H461.744z m-32.96-65.92a32.976 32.976 0 0 0 32.968 32.968H560.64a32.96 32.96 0 0 0 32.96-32.968v-98.888a32.96 32.96 0 0 0-32.96-32.96H461.744a32.96 32.96 0 0 0-32.968 32.96V277.44z m65.92-32.968v-32.96h32.968v32.96h-32.968z m0 0"  horiz-adv-x="1024" />

    
    <glyph glyph-name="mianji" unicode="&#58908;" d="M1014.912-64.568H63.432V633.184H0V-128h1014.912zM824.624 442.888L634.32 284.304 348.88 569.752 126.864 284.304v-285.44h824.616z"  horiz-adv-x="1024" />

    
    <glyph glyph-name="tiaoxing" unicode="&#58909;" d="M464.904 639.504L467.288 808H91.704v-168.496h373.2z m0 0M776.968 405.96l4.376 168.496H91.704v-168.496h685.264z m0 0M617.56 172.416l3.36 168.496H91.704v-168.496h525.856z m0 0M313.704-61.128l1.416 168.496H91.704v-168.496h222z m0 0M41.8-79.608V807.856H0V-128h1009.936v48.392H41.8z m0 0"  horiz-adv-x="1024" />

    
    <glyph glyph-name="duijizhutu" unicode="&#58910;" d="M52.64 419.672h99.32V8H52.64zM207.376 327.16h99.32V8H207.376zM382.608 777h99.32V8H382.608zM557.256 649.8h99.32V8H557.256zM729.944 419.672h99.32V8H729.944zM884.672 327.16h99.32V8h-99.32zM0-28.68h1024V-128H0z"  horiz-adv-x="1024" />

    
    <glyph glyph-name="lixianditu" unicode="&#58911;" d="M991.232 817.368L787.616 864.56a34.08 34.08 0 0 1-21.856-2.232L527.216 752.552 307.704 844.608a34.12 34.12 0 0 1-25.576 0.288L45.976 752.344a34.32 34.32 0 0 1-21.728-31.96v-651.776c0-11.344 5.544-21.936 14.864-28.312a33.872 33.872 0 0 1 31.624-3.64l223.392 87.544 220.544-92.512a34.296 34.296 0 0 1 27.32 0.496l17.72 8.112-30.216 61.512-2.272-1.04-219.52 92.064a34.024 34.024 0 0 1-25.536 0.288l-189.704-74.296V696.92l201.664 79.104 220.544-92.512a33.904 33.904 0 0 1 27.32 0.456L783.6 795.144l165.864-38.496v-581.28l-32.16 7.448-16.232-33.032c-2.552-5.792-5.36-11.464-8.4-17.008l-0.496-1.08-5.96-12.088 89.696-20.784a34.288 34.288 0 0 1 41.808 33.448l-0.088 651.608a34.36 34.36 0 0 1-26.448 33.448l0.048 0.04zM280.928 687.608v-413.56c0-7.616 6.08-13.744 13.656-13.744 7.496 0 13.664 6.128 13.664 13.744V687.56a13.72 13.72 0 0 1-13.664 13.784 13.72 13.72 0 0 1-13.656-13.736zM514.176 607.552v-208.128c0-7.616 6.128-13.744 13.664-13.744 7.488 0 13.656 6.128 13.656 13.744V607.552a13.712 13.712 0 0 1-13.656 13.744 13.68 13.68 0 0 1-13.664-13.744zM798.128 465.616V716.952a13.696 13.696 0 0 1-13.656 13.744 13.672 13.672 0 0 1-13.616-13.744v-251.336a13.664 13.664 0 0 1 13.656-13.744c7.536 0 13.664 6.208 13.664 13.744h-0.048zM703.504 399.392c-89.112 0-161.432-72.648-161.432-162.264A162.24 162.24 0 0 1 563.848 156h-0.168l15.44-31.296 30.216-61.512L703.464-128l128.112 260.24 11.712 23.76h-0.168a164.16 164.16 0 0 1 21.816 81.128c0 89.608-72.312 162.264-161.432 162.264z m0-210.448a68.016 68.016 0 0 0-67.84 68.176c0 37.672 30.384 68.216 67.8 68.216 37.496 0 67.8-30.544 67.8-68.216 0-37.624-30.296-68.176-67.8-68.176h0.04z"  horiz-adv-x="1024" />

    
    <glyph glyph-name="niwu" unicode="&#58912;" d="M136 251.528c0 65.976 33.92 150.776 94.392 252.072 24.072 40.288 52.064 82.56 83.216 126.096a2851.44 2851.44 0 0 0 119.336 154.976 2665.064 2665.064 0 0 0 50.368 59.56l4.048 4.584 24.744 27.856 24.84-27.856 4.112-4.6c3.64-4.304 7.344-8.552 11.128-12.736a3082.56 3082.56 0 0 0 39.264-46.8 2974.4 2974.4 0 0 0 119.416-154.976c30.896-43.536 58.896-85.808 83.024-126.096 60.488-101.304 94.416-186.104 94.416-252.072 0-208.536-168.208-377.928-376.2-377.928C304.224-126.4 136 42.992 136 251.528M484.184 744a2807.352 2807.352 0 0 1-116.576-151.528c-30.12-42.136-57.16-82.936-80.352-121.704-54.952-91.984-85.32-167.928-85.32-219.232 0-173.16 139.128-313.144 310.168-313.144 171.136 0 310.288 139.984 310.288 313.144 0 51.312-30.392 127.248-85.352 219.232-23.216 38.768-50.256 79.568-80.304 121.704a2778.304 2778.304 0 0 1-116.536 151.544 6677.152 6677.152 0 0 1-28.096 33.464c-8.664-10.328-18.056-21.488-27.904-33.464M512.144-13.88c-144.912 0-262.456 115.704-262.456 258.576 0 142.808 136.424 70.512 262.456 0 126.664-70.816 262.48 142.808 262.48 0-0.008-142.864-117.52-258.576-262.48-258.576"  horiz-adv-x="1024" />

    
    <glyph glyph-name="zhexian" unicode="&#58913;" d="M0-0.440452h1020.412612v-127.551576H0zM122.19441 176.593165a89.700646 89.700646 0 0 1 81.266298 128.827092l120.400717 120.408688a90.824694 90.824694 0 0 1 39.134418-8.426376c38.066174 0 71.931117 24.186968 84.279704 60.196372l134.853904-68.02485a90.298544 90.298544 0 0 1 172.170712 37.922678 89.612954 89.612954 0 0 1-16.254854 51.769996l132.446369 165.553975c10.929576-4.336754 22.568657-6.58485 34.311374-6.62471 49.872666 0 90.306516 40.43385 90.306516 90.306516 0 49.872666-40.425878 90.306516-90.306516 90.306516-49.872666 0-90.298544-40.425878-90.298544-90.306516a85.443612 85.443612 0 0 1 11.439782-42.745722L688.682849 534.191981a110.906096 110.906096 0 0 1-24.68123 3.611304 89.086804 89.086804 0 0 1-84.279704-60.196372L444.868011 545.631763a90.290572 90.290572 0 0 1-159.463387 17.362959 90.32246 90.32246 0 0 1-3.683051-93.814185L161.320856 348.763877a90.298544 90.298544 0 1 1-39.126446-172.170712z"  horiz-adv-x="1024" />

    
    <glyph glyph-name="zhuzhetu" unicode="&#58914;" d="M597.216 402.36h143.648v-526.728H597.216zM22.608 258.712h143.648v-383.08H22.608zM884.52 306.592h143.648v-430.96h-143.648zM309.904 546.016h143.648v-670.384H309.904zM669.856 539.928l333.128 179.424-45.392 84.28-289.36-155.768L357.024 803.44 0 612.144l45.2-84.368 313.36 167.832 311.296-155.68z m0 0"  horiz-adv-x="1028" />

    
    <glyph glyph-name="jinzitatu" unicode="&#58915;" d="M439.772279-30.783504V136.406326H183.359504l-1.635225-167.18983M51.136496 405.773891l-2.151194-167.181891h394.755969V405.773891H51.136496z m0 0M127.388775 669.259411l-2.452837-167.18983h322.774326V669.259411H127.388775zM851.325023-27.838512V139.351318H594.912248l-1.635225-167.18983M595.428217 408.718884l-2.151194-167.18983h402.693954V408.718884H595.428217z m0 0M595.72986 672.204403l-2.452837-167.189829h322.774326V672.204403H595.72986zM483.955101-128l56.08186 7.937984V880.124031h-56.08186v-1008.124031z"  horiz-adv-x="1024" />

    
    <glyph glyph-name="leidatu1" unicode="&#58916;" d="M560.256 843.816h3.72c93.68-7.344 173.688-35.608 237.568-84.424 62.992-48.304 109.296-100 137.616-153.696 2.672-5.112 3.208-11.08 1.488-16.592a19.816 19.816 0 0 0-10.736-12.648l-319.12-163.464a79.52 79.52 0 0 0-14.576-95.208 79.496 79.496 0 1 0-55.664 136.68V821.872a21.312 21.312 0 0 0 6.832 16.088 20.632 20.632 0 0 0 16.6 5.856h-3.728z m-19.248-432.824a36.056 36.056 0 0 1-36.128-36.072 36.04 36.04 0 0 1 36.128-36.08 36.032 36.032 0 0 1 36.12 36.08 36.04 36.04 0 0 1-36.12 36.12v-0.048z m202.464 239.096a28.808 28.808 0 0 1-26.32-43.656 28.808 28.808 0 0 1 53.504 14.88c0 15.28-11.92 27.904-27.184 28.776z m0 0M298.976 520.336a278.416 278.416 0 0 1-31.664-213.72 280.824 280.824 0 0 1 128.312-173.688 278.992 278.992 0 0 1 144.912-40.496c22.92 0 45.84 2.928 68.808 8.28 151.232 37.56 243.424 191.264 205.864 342.496a21.552 21.552 0 0 1-26.32 15.624 21.552 21.552 0 0 1-15.624-26.32c31.544-128.08-46.296-257.584-174.2-289.824a237.568 237.568 0 0 0-180.992 26.824 237.6 237.6 0 0 0-108.784 147.84 237.68 237.68 0 0 0 26.824 181.04A236.2 236.2 0 0 0 482.976 606.72a21.52 21.52 0 0 1 15.576 26.32 21.52 21.52 0 0 1-26.36 15.624 278.064 278.064 0 0 1-173.176-128.312h-0.04z m0 0M988.432 470.544a21.624 21.624 0 0 1-42.448-8.272c44.4-227.344-104.888-448.408-332.264-492.336-227.344-44.352-448.408 104.928-492.336 332.32a418.64 418.64 0 0 0 63.976 315.208 418.056 418.056 0 0 0 267.832 177.6 21.624 21.624 0 1 1-8.272 42.4 462.8 462.8 0 0 1-295.216-196.144 458.448 458.448 0 0 1-70.768-347.392 460.248 460.248 0 0 1 195.68-295.68 460.992 460.992 0 0 1 258.072-79.496c29.984 0 59.88 2.928 89.256 8.784 250.912 48.304 415.304 292.192 366.536 543.008h-0.048z m0 0"  horiz-adv-x="1024" />

    
    <glyph glyph-name="yibiaopan1" unicode="&#58917;" d="M961.60872 416.072a501.152 501.152 0 0 1-266.304 266.344 497.48 497.48 0 0 1-194.816 39.328 498.448 498.448 0 0 1-194.856-39.376 501.28 501.28 0 0 1-159.112-107.184A494.544 494.544 0 0 1 39.32872 416.032 497.52 497.52 0 0 1 0.00072 221.296h56.6c0 244.736 199.112 443.848 443.896 443.848 244.776 0 443.888-199.112 443.888-443.848h56.592a498.336 498.336 0 0 1-39.368 194.776zM122.83272 12.552h752.984v-56.6H122.83272zM477.96872 91.968l108.568-0.752-0.752 108.52-282.072 174.128 174.256-281.944v0.048z m51.552 56.216l-19.808 0.12-31.696 51.424 51.384-31.696 0.12-19.848zM106.31272 169.872h78.784v-56.64h-78.784zM176.00872 424.704l40.04 40.04 55.68-55.72-40.048-40.04-55.672 55.68zM728.08872 409.024l55.68 55.68 40.04-40.04-55.72-55.68-40.04 40.04zM471.96072 613.968h56.6v-78.496h-56.6zM815.29672 169.832h78.744v-56.6h-78.744z"  horiz-adv-x="1024" />

    
    <glyph glyph-name="kpi" unicode="&#58918;" d="M955.224 760.456H68.008a68.08 68.08 0 0 1-68.008-68.008v-671.448a68.08 68.08 0 0 1 68.008-68.008H955.232a68.08 68.08 0 0 1 68.008 68.008v671.44a68.096 68.096 0 0 1-68.016 68.016z m-6.176-733.264H74.184V686.264h874.864v-659.072z m0 0M281.352 292.688l40.312 43.968 78.176-114.832h76.96L360.744 376.976l107.504 113.608H392.512l-111.168-122.16v122.16h-61.088v-268.76h61.088v70.864z m276.088 23.208h45.192c72.48-0.824 108.312 29.312 107.512 90.4-2.448 54.552-36.24 82.648-101.4 84.288H496.352v-268.76h61.088V315.896z m0 128.272h40.312c31.76-0.824 48.048-14.256 48.864-40.312-0.824-26.872-17.112-40.72-48.864-41.536h-40.312V444.168z m183.232 46.416h62.304v-268.76H740.672V490.584z m0 0"  horiz-adv-x="1024" />

    
    <glyph glyph-name="qipaotu" unicode="&#58919;" d="M370.376 549.2c0-169.432 137.352-306.808 306.784-306.808 169.456 0 306.808 137.368 306.808 306.808S846.616 855.984 677.16 855.984c-169.416 0-306.784-137.352-306.784-306.784z m0 0M40 124.408c0-117.296 95.096-212.392 212.392-212.392s212.392 95.096 212.392 212.392-95.096 212.4-212.392 212.4S40 241.704 40 124.408z m0 0M653.592 53.616c0-78.2 63.392-141.6 141.6-141.6 78.2 0 141.6 63.392 141.6 141.6 0 78.2-63.392 141.6-141.6 141.6-78.208-0.008-141.6-63.4-141.6-141.6z m0 0"  horiz-adv-x="1024" />

    
    <glyph glyph-name="zaixianditu" unicode="&#58920;" d="M179.84 541.776c12.424-22.36 119.256-173.92 151.56-218.64 7.448-9.944 17.392-14.912 29.816-14.912s22.36 4.968 29.816 14.912c32.296 44.72 139.136 196.28 149.072 218.64 14.912 27.328 22.36 59.632 22.36 89.44 0 111.808-89.448 201.256-201.256 201.256S159.96 743.024 159.96 631.216c-2.48-29.816 4.976-59.632 19.88-89.44z m178.888 231.064c77.024 0 141.624-62.12 141.624-141.624 0-19.88-4.968-44.72-14.912-62.112-7.456-12.424-57.144-84.48-126.712-183.864-67.08 94.416-116.776 168.952-126.712 181.376-9.944 19.872-14.912 42.24-14.912 62.112 0.008 79.512 62.12 144.112 141.624 144.112z m0 0M299.096 631.216a59.64 59.64 0 1 1 119.28 0.008 59.64 59.64 0 0 1-119.28-0.008z m0 0M992.304 760.416c-7.456 4.968-14.904 7.456-24.848 4.968l-258.4-52.176-79.504 24.848c-14.912 4.968-32.304-2.48-37.272-19.88-4.968-14.912 2.488-32.296 19.88-37.264l67.088-22.36V360.4l-136.656 47.2c-14.912 4.968-32.296-4.968-37.272-19.872-4.968-14.912 4.976-32.296 19.88-37.264l151.56-47.208v-298.152l-295.664 84.472V223.744c0 17.392-12.424 29.816-29.816 29.816s-29.816-12.424-29.816-29.816v-131.68l-238.52-42.24V723.144c0 17.392-12.424 29.816-29.816 29.816s-29.816-12.424-29.816-29.816v-710.584c0-9.944 4.968-17.392 9.944-22.36 7.448-4.968 14.904-7.456 24.848-7.456l290.696 52.176 345.36-99.384h9.936c2.488 0 4.976 0 7.456 2.488l263.368 42.232c14.904 2.488 24.848 14.912 24.848 29.816V735.568c2.472 9.936-0.008 17.392-7.464 24.848z m-49.696-367.72L736.392 357.92V658.544l206.216 42.24v-308.088z m-206.216-392.568v298.16l206.216 34.784v-298.152l-206.216-34.792z m0 0"  horiz-adv-x="1024" />

    
    <glyph glyph-name="16" unicode="&#59154;" d="M272 540h320c44.184 0 80-35.818 80-80v-320c0-44.184-35.816-80-80-80H272c-44.182 0-80 35.816-80 80V460c0 44.182 35.818 80 80 80zM432 700h320c44.184 0 80-35.818 80-80v-320c0-44.184-35.816-80-80-80H432c-44.182 0-80 35.816-80 80V620c0 44.182 35.818 80 80 80zM690 430h-196c-16.568 0-30 13.432-30 30s13.432 30 30 30h196c16.568 0 30-13.432 30-30s-13.432-30-30-30zM592 332.148c-16.568 0-30 13.432-30 30v195.702c0 16.568 13.432 30 30 30s30-13.432 30-30v-195.702c0-16.568-13.432-30-30-30z"  horiz-adv-x="1024" />

    
    <glyph glyph-name="15" unicode="&#59155;" d="M272 700h480c44.184 0 80-35.818 80-80v-480c0-44.184-35.816-80-80-80H272c-44.182 0-80 35.816-80 80V620c0 44.182 35.818 80 80 80zM672 350H352c-16.568 0-30 13.432-30 30s13.432 30 30 30h320c16.568 0 30-13.432 30-30s-13.432-30-30-30zM512 190c-16.568 0-30 13.432-30 30V540c0 16.568 13.432 30 30 30s30-13.432 30-30v-320c0-16.568-13.432-30-30-30z"  horiz-adv-x="1024" />

    
    <glyph glyph-name="18" unicode="&#59156;" d="M272 700h140c44.182 0 80-35.818 80-80v-140c0-44.182-35.818-80-80-80h-140c-44.182 0-80 35.818-80 80v140c0 44.182 35.818 80 80 80zM612 700h140c44.184 0 80-35.818 80-80v-140c0-44.182-35.816-80-80-80h-140c-44.184 0-80 35.818-80 80v140c0 44.182 35.816 80 80 80zM272 360h140c44.182 0 80-35.816 80-80v-140c0-44.184-35.818-80-80-80h-140c-44.182 0-80 35.816-80 80v140c0 44.184 35.818 80 80 80zM612 360h140c44.184 0 80-35.816 80-80v-140c0-44.184-35.816-80-80-80h-140c-44.184 0-80 35.816-80 80v140c0 44.184 35.816 80 80 80z"  horiz-adv-x="1024" />

    
    <glyph glyph-name="19" unicode="&#59157;" d="M298 90c-41.974 0-76 34.028-76 76V594c0 41.974 34.026 76 76 76h214l46.308-116.214H726c41.972 0 76-34.026 76-76V166c0-41.972-34.028-76-76-76H298zM726 60H298c-58.448 0-106 47.55-106 106V594c0 58.448 47.552 106 106 106h214a30.004 30.004 0 0 0 27.87-18.894l38.78-97.32H726c58.45 0 106-47.552 106-106V166c0-58.45-47.55-106-106-106zM298 640c-25.364 0-46-20.636-46-46v-428c0-25.366 20.636-46 46-46h428c25.366 0 46 20.634 46 46V477.786c0 25.364-20.634 46-46 46h-167.692a30.004 30.004 0 0 0-27.87 18.894L491.66 640H298zM192 468h640v-60H192zM712 191c-16.568 0-30 13.432-30 30v108.778c0 16.568 13.432 30 30 30s30-13.432 30-30V221c0-16.568-13.432-30-30-30zM612 191c-16.568 0-30 13.432-30 30v108.778c0 16.568 13.432 30 30 30s30-13.432 30-30V221c0-16.568-13.432-30-30-30zM512 191c-16.568 0-30 13.432-30 30v108.778c0 16.568 13.432 30 30 30s30-13.432 30-30V221c0-16.568-13.432-30-30-30z"  horiz-adv-x="1024" />

    
    <glyph glyph-name="17" unicode="&#59158;" d="M272 540h320c44.184 0 80-35.818 80-80v-320c0-44.184-35.816-80-80-80H272c-44.182 0-80 35.816-80 80V460c0 44.182 35.818 80 80 80zM432 700h320c44.184 0 80-35.818 80-80v-320c0-44.184-35.816-80-80-80H432c-44.182 0-80 35.816-80 80V620c0 44.182 35.818 80 80 80zM661.298 360.702a29.914 29.914 0 0 0-21.214 8.788l-138.594 138.594c-11.716 11.716-11.718 30.71 0 42.428 11.714 11.716 30.71 11.716 42.426 0l138.592-138.594c11.718-11.714 11.718-30.71 0-42.426a29.904 29.904 0 0 0-21.21-8.79zM522.808 360.808a29.9 29.9 0 0 0-21.214 8.788c-11.716 11.716-11.716 30.712 0 42.428l138.382 138.38c11.718 11.718 30.712 11.718 42.426 0 11.718-11.716 11.718-30.708 0-42.426l-138.38-138.38a29.9 29.9 0 0 0-21.214-8.79z"  horiz-adv-x="1024" />

    
    <glyph glyph-name="110" unicode="&#59159;" d="M332 700h360c55.228 0 100-44.772 100-100v-440c0-55.228-44.772-100-100-100H332c-55.228 0-100 44.772-100 100V600c0 55.228 44.772 100 100 100zM692 60H332c-55.14 0-100 44.86-100 100V600c0 55.14 44.86 100 100 100h360c55.14 0 100-44.86 100-100v-440c0-55.14-44.86-100-100-100zM332 640c-22.056 0-40-17.944-40-40v-440c0-22.056 17.944-40 40-40h360c22.056 0 40 17.944 40 40V600c0 22.056-17.944 40-40 40H332zM412 306h200v-60H412zM412 394h200v-60H412zM482 380h60v-210h-60zM372 602h280v-60H372zM452.19 482.242l81.022-81.02-42.426-42.428-81.02 81.022zM571.81 482.242l42.426-42.426-81.022-81.02-42.426 42.424z"  horiz-adv-x="1024" />

    
    <glyph glyph-name="111" unicode="&#59160;" d="M802.128 154.414c-0.004-35.598-28.866-64.454-64.462-64.448H286.418c-35.598-0.006-64.46 28.85-64.464 64.448V605.552S221.586 670 286.418 670h137.664l136-106.358h177.586s64.336 5.514 64.464-58.91c0.126-64.424 0-81.29 0-81.29l-0.004-269.028zM737.676 59.96600000000001H286.418c-52.086-0.004-94.458 42.364-94.464 94.444V605.552c-0.024 4.026 0.546 41.62 27.55 68.778C231.148 686.042 252.208 700 286.418 700h148.002l136-106.358h166.298c1.124 0.06 2.706 0.118 4.672 0.118 45.078 0 90.62-27.51 90.742-88.968 0.122-61.87 0.012-79.788 0-81.464l-0.004-268.914c-0.004-52.08-42.376-94.448-94.452-94.448zM286.418 640c-16.438 0-22.406-6.002-24.366-7.974-9.43-9.484-10.098-26.142-10.098-26.302v-451.31c0.002-18.994 15.458-34.45 34.452-34.448h451.27c18.996 0 34.452 15.456 34.454 34.452l0.004 269.25c0.002 0.168 0.126 17.626 0 81.006-0.02 9.44-0.058 29.086-30.742 29.086-0.582 0-1.03-0.012-1.31-0.024l-1.46-0.158-0.952 0.064h-187.924l-136 106.358h-127.328zM613.002 310.304H401.266c-16.568 0-30 13.432-30 30s13.432 30 30 30h211.736c16.568 0 30-13.432 30-30s-13.432-30-30-30zM767.278 624.38H578.96c-16.568 0-30 13.432-30 30s13.432 30 30 30h188.316c16.568 0 30-13.432 30-30s-13.43-30-29.998-30zM512 215.69600000000003c-16.568 0-30 13.432-30 30V433c0 16.568 13.432 30 30 30s30-13.432 30-30v-187.304c0-16.57-13.432-30-30-30z"  horiz-adv-x="1024" />

    
    <glyph glyph-name="115" unicode="&#59161;" d="M328 377.99800000000005a276 276 0 1 1 552 0 276 276 0 1 1-552 0ZM144 377.99800000000005a276 276 0 1 1 552 0 276 276 0 1 1-552 0ZM420 101.99800000000005C267.814 101.99800000000005 144 225.80999999999995 144 377.99800000000005 144 530.184 267.814 653.998 420 653.998c152.188 0 276-123.814 276-276 0-152.188-123.812-276-276-276z m0 492C300.898 593.998 204 497.1 204 377.99800000000005c0-119.104 96.898-216 216-216 119.104 0 216 96.896 216 216 0 119.102-96.896 216-216 216zM420 378m-276 0a276 276 0 1 1 552 0 276 276 0 1 1-552 0ZM530.814 266.01800000000003a29.87 29.87 0 0 0-19.01 6.806c-12.81 10.508-14.674 29.41-4.166 42.22 30.582 37.278 29.442 90.41-2.706 126.34-11.048 12.348-9.994 31.314 2.354 42.362 12.348 11.048 31.314 9.996 42.362-2.354A157.19 157.19 0 0 0 589.634 380a157.216 157.216 0 0 0-35.608-103.012 29.944 29.944 0 0 0-23.212-10.97z"  horiz-adv-x="1024" />

    
    <glyph glyph-name="113" unicode="&#59162;" d="M432 716h160v-60h-160zM517.824 46.162000000000035c-14.878 0-30.124 2.386-45.53 7.216-39.11 12.262-65.906 35.676-68.832 38.304L423.514 114l19.952 22.404c0.204-0.18 20.612-17.996 48.34-26.25 33.208-9.89 61.756-1.824 87.272 24.66l43.208-41.628c-29.892-31.024-65.938-47.024-104.462-47.024zM751.078 198.164C724.532 252.64 724 251.20000000000005 724 378.144 724 505.088 629.084 608 512 608s-212-102.91-212-229.856c0-126.948-26.384-179.982-26.384-179.982l477.462 0.002zM273.616 168.16200000000003c-10.49 0-20.348 5.22-25.786 14.192-5.412 8.928-5.922 19.766-1.144 29.036 1.29 2.854 23.314 53.398 23.314 166.756C270 521.4300000000001 378.56 638 512 638s242-116.57 242-259.856c0-117.538 0-117.538 22.516-163.698l1.532-3.14a30 30 0 0 0-26.97-43.142l-477.462-0.002zM512 578c-100.356 0-182-89.656-182-199.856 0-69.974-7.652-118.822-15.2-149.982l390.046 0.002c-10.436 29.84-10.846 58.536-10.846 149.98 0 110.2-81.644 199.856-182 199.856z"  horiz-adv-x="1024" />

    
    <glyph glyph-name="114" unicode="&#59163;" d="M272 700h140c44.182 0 80-35.818 80-80v-140c0-44.182-35.818-80-80-80h-140c-44.182 0-80 35.818-80 80v140c0 44.182 35.818 80 80 80zM412 400h-140c-44.112 0-80 35.888-80 80v140c0 44.112 35.888 80 80 80h140c44.112 0 80-35.888 80-80v-140c0-44.112-35.888-80-80-80z m-140 240c-11.028 0-20-8.972-20-20v-140c0-11.028 8.972-20 20-20h140c11.028 0 20 8.972 20 20v140c0 11.028-8.972 20-20 20h-140zM612 700h140c44.184 0 80-35.818 80-80v-140c0-44.182-35.816-80-80-80h-140c-44.184 0-80 35.818-80 80v140c0 44.182 35.816 80 80 80zM752 400h-140c-44.112 0-80 35.888-80 80v140c0 44.112 35.888 80 80 80h140c44.112 0 80-35.888 80-80v-140c0-44.112-35.888-80-80-80z m-140 240c-11.028 0-20-8.972-20-20v-140c0-11.028 8.972-20 20-20h140c11.028 0 20 8.972 20 20v140c0 11.028-8.972 20-20 20h-140zM272 360h140c44.182 0 80-35.816 80-80v-140c0-44.184-35.818-80-80-80h-140c-44.182 0-80 35.816-80 80v140c0 44.184 35.818 80 80 80zM412 60h-140c-44.112 0-80 35.888-80 80v140c0 44.112 35.888 80 80 80h140c44.112 0 80-35.888 80-80v-140c0-44.112-35.888-80-80-80z m-140 240c-11.028 0-20-8.972-20-20v-140c0-11.028 8.972-20 20-20h140c11.028 0 20 8.972 20 20v140c0 11.028-8.972 20-20 20h-140zM588 324h94c11.046 0 20-8.954 20-20v-94c0-11.044-8.954-20-20-20h-94c-11.046 0-20 8.956-20 20v94c0 11.046 8.954 20 20 20zM746 244h66c11.046 0 20-8.956 20-20v-144c0-11.044-8.954-20-20-20h-66c-11.046 0-20 8.956-20 20v144c0 11.044 8.954 20 20 20zM832 146v-66c0-11.044-8.954-20-20-20h-144c-11.046 0-20 8.956-20 20v66c0 11.044 8.954 20 20 20h144c11.046 0 20-8.956 20-20zM548 132h40a16 16 0 0 0 16-16v-40a16 16 0 0 0-16-16h-40a16 16 0 0 0-16 16v40a16 16 0 0 0 16 16zM776 360h40a16 16 0 0 0 16-16v-40a16 16 0 0 0-16-16h-40a16 16 0 0 0-16 16v40a16 16 0 0 0 16 16zM548 360h54a16 16 0 0 0 16-16v-54a16 16 0 0 0-16-16h-54a16 16 0 0 0-16 16v54a16 16 0 0 0 16 16z"  horiz-adv-x="1024" />

    
    <glyph glyph-name="112" unicode="&#59164;" d="M727.89 280c41.02 0 74.27 33.25 74.27 74.268V595.6379999999999c0 41.018-33.25 74.268-74.27 74.268H360.268c-41.016 0-74.268-33.25-74.268-74.268v-73.08M727.89 250v60c24.41 0 44.27 19.858 44.27 44.268V595.6379999999999c0 24.41-19.86 44.268-44.27 44.268H360.268c-24.41 0-44.268-19.858-44.268-44.268v-73.08h-60v73.08c0 57.494 46.774 104.268 104.268 104.268h367.624c57.494 0 104.27-46.774 104.27-104.268v-241.37C832.16 296.774 785.384 250 727.89 250zM306.52 174H272c-27.614 0-50 22.386-50 50V484c0 27.614 22.386 50 50 50h396c27.614 0 50-22.386 50-50v-260c0-27.614-22.386-50-50-50h-194.4l-83.538-83.54L306.52 174zM390.062 60.460000000000036a29.896 29.896 0 0 0-21.212 8.788L294.094 144H272c-44.112 0-80 35.888-80 80V484c0 44.112 35.888 80 80 80h396c44.112 0 80-35.888 80-80v-260c0-44.112-35.888-80-80-80h-181.974l-74.75-74.752a29.908 29.908 0 0 0-21.214-8.788zM272 504c-11.028 0-20-8.972-20-20v-260c0-11.028 8.972-20 20-20h34.52c7.956 0 15.586-3.16 21.212-8.788l62.33-62.326 62.324 62.326A30 30 0 0 0 473.6 204H668c11.028 0 20 8.972 20 20V484c0 11.028-8.972 20-20 20H272zM592 370H330c-16.568 0-30 13.432-30 30s13.432 30 30 30h262c16.568 0 30-13.432 30-30s-13.432-30-30-30zM482 258h-152c-16.568 0-30 13.432-30 30s13.432 30 30 30h152c16.568 0 30-13.432 30-30s-13.432-30-30-30z"  horiz-adv-x="1024" />

    
    <glyph glyph-name="118" unicode="&#59165;" d="M512 380m-320 0a320 320 0 1 1 640 0 320 320 0 1 1-640 0ZM512 60C335.552 60 192 203.54999999999995 192 380 192 556.448 335.552 700 512 700c176.45 0 320-143.552 320-320 0-176.45-143.55-320-320-320z m0 580C368.636 640 252 523.364 252 380c0-143.366 116.636-260 260-260 143.366 0 260 116.634 260 260 0 143.364-116.634 260-260 260zM474 316.082v127.836L584.206 380 474 316.082zM524.41 380L504 391.838v-23.676L524.41 380m99.726 0c0-6.722-3.32-13.448-9.964-17.3l-140.138-81.28c-13.334-7.732-30.034 1.886-30.034 17.3v162.56c0 15.414 16.702 25.034 30.034 17.3l140.138-81.28c6.644-3.852 9.964-10.576 9.964-17.3z"  horiz-adv-x="1024" />

    
    <glyph glyph-name="117" unicode="&#59166;" d="M512 380m-320 0a320 320 0 1 1 640 0 320 320 0 1 1-640 0ZM512 60C335.552 60 192 203.54999999999995 192 380 192 556.448 335.552 700 512 700c176.45 0 320-143.552 320-320 0-176.45-143.55-320-320-320z m0 580C368.636 640 252 523.364 252 380c0-143.366 116.636-260 260-260 143.366 0 260 116.634 260 260 0 143.364-116.634 260-260 260zM603 259a29.9 29.9 0 0 0-21.212 8.788l-182.782 182.782c-11.716 11.716-11.716 30.71 0 42.426 11.714 11.716 30.71 11.716 42.426 0l182.782-182.782c11.716-11.714 11.716-30.71 0-42.426A29.908 29.908 0 0 0 603 259zM420.218 259a29.9 29.9 0 0 0-21.212 8.788c-11.716 11.714-11.716 30.71 0 42.426l182.782 182.782c11.714 11.716 30.71 11.716 42.426 0 11.716-11.716 11.716-30.71 0-42.426l-182.782-182.782a29.908 29.908 0 0 0-21.214-8.788z"  horiz-adv-x="1024" />

    
    <glyph glyph-name="119" unicode="&#59167;" d="M385.648 89.98400000000004l-163.934 0.64 0.258 163.038-0.186 0.186 0.186 0.188v0.734l0.364-0.368 415.6 415.6 164.056-164.052L386.32 90.28200000000004l0.296-0.296h-0.6l-0.2-0.2-0.168 0.198zM385.818 59.785999999999945a30.116 30.116 0 0 0-3.564 0.214l-160.656 0.626c-16.542 0.064-29.91 13.506-29.882 30.046l0.252 159.878a30.174 30.174 0 0 0 0.518 9.754 30.018 30.018 0 0 0 12.566 19.24l411.67 411.67c11.714 11.716 30.71 11.716 42.426 0l164.056-164.052a30 30 0 0 0 0-42.426L411.072 72.60799999999995a30.028 30.028 0 0 0-17.658-11.844c-2.46-0.644-5.014-0.978-7.596-0.978z m-134.056 60.722l121.882-0.476 385.92 385.918-121.628 121.626-385.982-385.984-0.192-121.084zM377.256 213.25599999999997a29.9 29.9 0 0 0-21.212 8.788c-11.716 11.714-11.716 30.71 0 42.426l135.744 135.744c11.714 11.716 30.71 11.716 42.426 0 11.716-11.714 11.716-30.71 0-42.426l-135.744-135.744a29.908 29.908 0 0 0-21.214-8.788zM540.046 614.64L746.62 408.064l-42.426-42.426L497.62 572.2139999999999zM801.968 60H512c-16.568 0-30 13.432-30 30s13.432 30 30 30h289.968c16.568 0 30-13.432 30-30s-13.43-30-30-30z"  horiz-adv-x="1024" />

    
    <glyph glyph-name="116" unicode="&#59168;" d="M512 380m-320 0a320 320 0 1 1 640 0 320 320 0 1 1-640 0ZM512 60C335.552 60 192 203.54999999999995 192 380 192 556.448 335.552 700 512 700c176.45 0 320-143.552 320-320 0-176.45-143.55-320-320-320z m0 580C368.636 640 252 523.364 252 380c0-143.366 116.636-260 260-260 143.366 0 260 116.634 260 260 0 143.364-116.634 260-260 260zM469 269.21799999999996a29.9 29.9 0 0 0-21.212 8.788l-76 76c-11.716 11.714-11.716 30.71 0 42.426 11.714 11.716 30.71 11.716 42.426 0l76-76c11.716-11.714 11.716-30.71 0-42.426a29.908 29.908 0 0 0-21.214-8.788zM471 269.21799999999996a29.91 29.91 0 0 0-21.162 8.734c-11.744 11.688-11.792 30.684-0.104 42.428l160 160.78c11.692 11.746 30.684 11.792 42.428 0.104s11.79-30.682 0.104-42.426l-160-160.782a29.914 29.914 0 0 0-21.266-8.838z"  horiz-adv-x="1024" />

    
    <glyph glyph-name="1" unicode="&#59169;" d="M522.024 690c165.33 0 299.358-134.024 299.36-299.354v-0.004c-67.258-0.144-299.36 0-299.36 0V690zM713.878 380.578c-88.704 0-191.862 0.064-191.862 0.064a9.998 9.998 0 0 0-9.994 10V690a10 10 0 0 0 10 10c170.58 0 309.358-138.774 309.36-309.354a10.004 10.004 0 0 0-9.978-10.004c-22.422-0.048-63.17-0.064-107.526-0.064z m-181.854 20.058c42.8-0.022 211.588-0.108 279.19-0.012-5.166 151.63-127.566 274.026-279.19 279.206v-279.194zM705.622 322.37199999999996c0.06-139.028-112.594-251.782-251.622-251.844-139.028-0.06-251.782 112.594-251.844 251.622-0.062 139.028 112.592 251.782 251.62 251.844H454c0.076-84.2 0-251.622 0-251.622h251.622zM454.004 60.52800000000002h-0.118c-144.254 0-261.668 117.362-261.732 261.618-0.032 69.91 27.164 135.65 76.578 185.106 49.412 49.456 115.126 76.71 185.038 76.742H454a10 10 0 0 0 10-9.992c0.064-71.41 0.018-204.25 0.004-241.63h241.618a10 10 0 0 0 10-9.996c0.062-144.32-117.3-261.784-261.618-261.848z m-9.996 503.266c-60.898-2.432-117.798-27.314-161.126-70.68-45.638-45.678-70.754-106.392-70.726-170.962 0.058-133.232 108.5-241.626 241.732-241.626v-10l0.108 10c129.938 0.058 236.216 103.172 241.426 231.844H454a9.994 9.994 0 0 0-10 10.004c0 1.61 0.07 155.528 0.008 241.42z"  horiz-adv-x="1024" />

    
    <glyph glyph-name="14" unicode="&#59170;" d="M272 700h480c44.184 0 80-35.818 80-80v-480c0-44.184-35.816-80-80-80H272c-44.182 0-80 35.816-80 80V620c0 44.182 35.818 80 80 80zM672 350H352c-16.568 0-30 13.432-30 30s13.432 30 30 30h320c16.568 0 30-13.432 30-30s-13.432-30-30-30z"  horiz-adv-x="1024" />

    
    <glyph glyph-name="13" unicode="&#59171;" d="M272 700h480c44.184 0 80-35.818 80-80v-480c0-44.184-35.816-80-80-80H272c-44.182 0-80 35.816-80 80V620c0 44.182 35.818 80 80 80zM353 189a29.9 29.9 0 0 0-21.212 8.788c-11.716 11.714-11.716 30.71 0 42.426l320 320c11.714 11.716 30.71 11.716 42.426 0 11.716-11.716 11.716-30.71 0-42.426l-320-320A29.908 29.908 0 0 0 353 189zM434 510h-160c-16.568 0-30 13.432-30 30s13.432 30 30 30h160c16.568 0 30-13.432 30-30s-13.432-30-30-30zM750 190h-160c-16.568 0-30 13.432-30 30s13.432 30 30 30h160c16.568 0 30-13.432 30-30s-13.432-30-30-30zM352 428c-16.568 0-30 13.432-30 30v160c0 16.568 13.432 30 30 30s30-13.432 30-30v-160c0-16.568-13.432-30-30-30z"  horiz-adv-x="1024" />

    
    <glyph glyph-name="11" unicode="&#59172;" d="M448 444m-256 0a256 256 0 1 1 512 0 256 256 0 1 1-512 0ZM448 188C306.84 188 192 302.842 192 444 192 585.1600000000001 306.84 700 448 700c141.158 0 256-114.84 256-256 0-141.158-114.842-256-256-256z m0 452c-108.076 0-196-87.924-196-196 0-108.074 87.924-196 196-196 108.074 0 196 87.926 196 196 0 108.076-87.926 196-196 196zM802.208 59.79200000000003a29.9 29.9 0 0 0-21.212 8.788l-122.208 122.208c-11.716 11.714-11.716 30.71 0 42.426 11.714 11.714 30.71 11.714 42.426 0l122.208-122.208c11.716-11.714 11.716-30.71 0-42.426a29.916 29.916 0 0 0-21.214-8.788z"  horiz-adv-x="1024" />

    
    <glyph glyph-name="12" unicode="&#59173;" d="M512 91.31600000000003c-0.422 0-0.79 0.116-0.994 0.222l-156.182 243.378-1.512 4.544-3.148 4.432a203.708 203.708 0 0 0-29.542 56.616c-7.05 21.022-10.626 43.054-10.626 65.488 0 13.878 1.384 27.738 4.116 41.196a204.178 204.178 0 0 0 11.784 38.288 204.45 204.45 0 0 0 73.282 89.764 201.32 201.32 0 0 0 34.288 18.772 199.418 199.418 0 0 0 37.842 11.848C484.602 668.61 498.292 670 512 670s27.398-1.39 40.692-4.134a199.254 199.254 0 0 0 37.84-11.848 201.32 201.32 0 0 0 34.288-18.772 204.02 204.02 0 0 0 29.926-24.904 204.546 204.546 0 0 0 43.358-64.862 204.234 204.234 0 0 0 11.784-38.288 207.66 207.66 0 0 0 4.114-41.196c0-22.434-3.574-44.466-10.626-65.488a203.674 203.674 0 0 0-29.54-56.616l-2.844-3.84-1.512-4.532-155.794-243.288-1.686-0.916zM512 626c-87.124 0-158.002-70.878-158.002-158s70.878-158 158.002-158c87.12 0 158 70.878 158 158s-70.878 158-158 158zM512 145.216l108.488 169.322C589.818 292.794 552.374 280 512 280s-77.818 12.792-108.488 34.538L512 145.216m0-83.9a32.24 32.24 0 0 0-14.984 3.684c-4.89 2.578-8.914 6.296-11.96 11.05l-155.492 242.684a32.516 32.516 0 0 0-3.5 7.296 233.664 233.664 0 0 0-33.882 64.94c-8.084 24.1-12.182 49.344-12.182 75.028 0 15.876 1.586 31.744 4.714 47.16a234.288 234.288 0 0 0 13.518 43.924 234.622 234.622 0 0 0 21.39 39.748 235.424 235.424 0 0 0 28.33 34.632 234.16 234.16 0 0 0 34.336 28.574 231.466 231.466 0 0 0 39.408 21.576c14 5.972 28.654 10.56 43.548 13.634C480.528 698.4 496.26 700 512 700s31.472-1.6 46.756-4.754a229.42 229.42 0 0 0 43.546-13.634 231.408 231.408 0 0 0 39.41-21.576c12.286-8.372 23.836-17.984 34.334-28.574s20.03-22.24 28.33-34.632a234.774 234.774 0 0 0 21.39-39.748 234.436 234.436 0 0 0 13.518-43.924 237.82 237.82 0 0 0 4.712-47.16c0-25.682-4.098-50.926-12.182-75.028a233.738 233.738 0 0 0-33.88-64.94 32.7 32.7 0 0 0-3.502-7.296l-155.49-242.684c-3.048-4.754-7.074-8.472-11.96-11.05a32.232 32.232 0 0 0-14.982-3.684zM512 596c-70.58 0-128-57.42-128-128s57.42-128 128.002-128c70.58 0 128 57.42 128 128S582.58 596 512 596zM512 466m-74 0a74 74 0 1 1 148 0 74 74 0 1 1-148 0Z"  horiz-adv-x="1024" />

    
    <glyph glyph-name="121" unicode="&#59174;" d="M512 380m-320 0a320 320 0 1 1 640 0 320 320 0 1 1-640 0ZM512 60C335.552 60 192 203.54999999999995 192 380 192 556.448 335.552 700 512 700c176.45 0 320-143.552 320-320 0-176.45-143.55-320-320-320z m0 580C368.636 640 252 523.364 252 380c0-143.366 116.636-260 260-260 143.366 0 260 116.634 260 260 0 143.364-116.634 260-260 260zM600 428v-96c0-22.092-17.908-40-40-40h-96c-22.092 0-40 17.908-40 40v96c0 22.092 17.908 40 40 40h96c22.092 0 40-17.908 40-40zM560 292h-96c-22.056 0-40 17.944-40 40v96c0 22.056 17.944 40 40 40h96c22.056 0 40-17.944 40-40v-96c0-22.056-17.944-40-40-40z m-76 60h56v56h-56v-56z"  horiz-adv-x="1024" />

    
    <glyph glyph-name="123" unicode="&#59175;" d="M252 472H192v98c0 71.682 58.318 130 130 130h98v-60h-98c-38.598 0-70-31.402-70-70v-98zM420 60h-98c-71.682 0-130 58.318-130 130v98h60v-98c0-38.598 31.402-70 70-70h98v-60zM832 472h-60v98c0 38.598-31.402 70-70 70h-98V700h98c71.682 0 130-58.318 130-130v-98zM702 60h-98v60h98c38.598 0 70 31.402 70 70v98h60v-98c0-71.682-58.318-130-130-130zM435 573h142c35.346 0 64-28.654 64-64v-258c0-35.346-28.654-64-64-64h-142c-35.346 0-64 28.654-64 64v258c0 35.346 28.654 64 64 64zM577 187h-142c-35.29 0-64 28.71-64 64v258c0 35.29 28.71 64 64 64h142c35.29 0 64-28.71 64-64v-258c0-35.29-28.71-64-64-64z m-142 326c-2.206 0-4-1.794-4-4v-258c0-2.206 1.794-4 4-4h142c2.206 0 4 1.794 4 4v258c0 2.206-1.794 4-4 4h-142zM716 350H308c-16.568 0-30 13.432-30 30s13.432 30 30 30h408c16.568 0 30-13.432 30-30s-13.432-30-30-30z"  horiz-adv-x="1024" />

    
    <glyph glyph-name="124" unicode="&#59176;" d="M272 700h480c44.184 0 80-35.818 80-80v-328c0-44.184-35.816-80-80-80H272c-44.182 0-80 35.816-80 80V620c0 44.182 35.818 80 80 80zM752 212H272c-44.112 0-80 35.888-80 80V620c0 44.112 35.888 80 80 80h480c44.112 0 80-35.888 80-80v-328c0-44.112-35.888-80-80-80zM272 640c-11.028 0-20-8.972-20-20v-328c0-11.028 8.972-20 20-20h480c11.028 0 20 8.972 20 20V620c0 11.028-8.972 20-20 20H272zM352 120h320v-60H352zM450 526h-160c-16.568 0-30 13.432-30 30s13.432 30 30 30h160c16.568 0 30-13.432 30-30s-13.432-30-30-30zM192 380h640v-60H192zM482.446 244h60v-184h-60z"  horiz-adv-x="1024" />

    
    <glyph glyph-name="126" unicode="&#59177;" d="M512 540m-160 0a160 160 0 1 1 320 0 160 160 0 1 1-320 0ZM512 380c-88.224 0-160 71.776-160 160S423.776 700 512 700s160-71.776 160-160-71.776-160-160-160z m0 260c-55.14 0-100-44.86-100-100s44.86-100 100-100 100 44.86 100 100-44.86 100-100 100zM326 328h372c74.006 0 134-59.994 134-134s-59.994-134-134-134H326c-74.006 0-134 59.994-134 134s59.994 134 134 134zM698 60H326c-73.888 0-134 60.112-134 134s60.112 134 134 134h372c73.888 0 134-60.112 134-134s-60.112-134-134-134zM326 268c-40.804 0-74-33.198-74-74s33.196-74 74-74h372c40.802 0 74 33.198 74 74s-33.198 74-74 74H326zM716.856 164.75400000000002H557c-16.568 0-30 13.432-30 30s13.432 30 30 30h159.856c16.568 0 30-13.432 30-30s-13.432-30-30-30z"  horiz-adv-x="1024" />

    
    </font>
</defs>
</svg>
